<svg xmlns="http://www.w3.org/2000/svg" xmlns:xlink="http://www.w3.org/1999/xlink" viewBox="0 0 104 104"><defs><style>.cls-1{fill:url(#linear-gradient);}.cls-2{fill:url(#linear-gradient-2);}.cls-3{fill:url(#linear-gradient-3);}.cls-4{fill:url(#linear-gradient-4);}</style><linearGradient id="linear-gradient" x1="100.83" y1="66.9" x2="-17.17" y2="30.9" gradientUnits="userSpaceOnUse"><stop offset="0" stop-color="#020a19"/><stop offset="0.13" stop-color="#040d1e"/><stop offset="0.28" stop-color="#08172d"/><stop offset="0.45" stop-color="#102845"/><stop offset="0.63" stop-color="#1b3f66"/><stop offset="0.76" stop-color="#255384"/><stop offset="0.82" stop-color="#295688"/><stop offset="0.88" stop-color="#365e96"/><stop offset="0.94" stop-color="#4c6cab"/><stop offset="1" stop-color="#647cc4"/></linearGradient><linearGradient id="linear-gradient-2" x1="89.8" y1="78.68" x2="-35.53" y2="32.68" gradientUnits="userSpaceOnUse"><stop offset="0" stop-color="#020a19"/><stop offset="0.12" stop-color="#040d1e"/><stop offset="0.27" stop-color="#08172d"/><stop offset="0.43" stop-color="#102845"/><stop offset="0.59" stop-color="#1b3f66"/><stop offset="0.72" stop-color="#255384"/><stop offset="0.78" stop-color="#295688"/><stop offset="0.86" stop-color="#365e96"/><stop offset="0.93" stop-color="#4c6cab"/><stop offset="1" stop-color="#647cc4"/></linearGradient><linearGradient id="linear-gradient-3" x1="94.38" y1="66.2" x2="-30.95" y2="20.2" xlink:href="#linear-gradient-2"/><linearGradient id="linear-gradient-4" x1="94" y1="67.23" x2="-31.33" y2="21.23" xlink:href="#linear-gradient-2"/></defs><title>Asset 1</title><g id="Layer_2" data-name="Layer 2"><g id="Ñëîé_1" data-name="Ñëîé 1"><circle class="cls-1" cx="52" cy="52" r="52"/><path class="cls-2" d="M9,80C8.28,69.15,14.67,57.91,21.19,49.5c5.3-6.85,9.35-13.41,6.75-22.56a7.65,7.65,0,0,0-11.11-4.52c-.76.43-4.09.35-7.65.09a51.41,51.41,0,0,0-4.46,7.85c.24.19.48.41.73.59a18.54,18.54,0,0,0,5.71,2.19C9.92,39.49,10.29,46.16,7,52A112.38,112.38,0,0,0,1.24,63.25,51.72,51.72,0,0,0,9.13,81.43Z"/><path class="cls-3" d="M49.91,48.77c3.64-7.91,6.74-15.6,4.89-24.59C53.26,16.66,49.15,13.7,44.34,9.72c3.77-3.41,16.15-5.43,25.5-6.58A52.13,52.13,0,0,0,31.15,4.36c-2.56,4.11-3.37,9.08.6,13,2.73,2.68,6.72,3.14,8.81,6.7,3,5.12.73,11.81.29,17.27C40,52.11,34.64,62.14,28.43,71a83.14,83.14,0,0,1-10.8,12.52,25.61,25.61,0,0,1-4,3.58A52.37,52.37,0,0,0,20,92.94C34.88,81.33,42.22,65.43,49.91,48.77Z"/><path class="cls-4" d="M103.44,44.42a29.26,29.26,0,0,0-8.41,0c-7.72,1.26-14.35,5.19-17.64,12.51-4.67,10.42-2,23.3-7.37,33.54-1.64,3.1-9.2,11.73-12.89,11.86-6.59.24-8.71-15-6.59-19.52C54,75.43,62.78,72.07,65.52,64c1.75-5.14.83-10.23,4.7-14.63,2.55-2.89,6-5.19,7.19-9,1.63-5.1-2.16-9.55-1.08-14.57,1.29-6,6.37-5.63,10-8.79a15.76,15.76,0,0,0,2-2.17A52,52,0,0,0,73.59,4.7,18.07,18.07,0,0,0,74.6,8c2,4.34,1.87,1.46-.1,4.62-1.79,2.89-3.62,3.89-4,7.56-.75,7.5,4.3,12.41-1.66,20.43-2.46,3.31-5.95,5.48-7.74,9.33-2.64,5.64-1.32,11.39-5.3,16.68-3,4-7.4,6.82-10.69,10.54C38.2,84.93,37.61,93.66,41,102.82a51.94,51.94,0,0,0,41.22-8.51,27.34,27.34,0,0,0,1.46-4.14c1.61-6.31,2.58-12.84,4-19.2,1.8-7.8,2.88-12.53,11.66-13.95,1.47-.24,2.95-.39,4.42-.49.13-1.5.21-3,.21-4.53A51.33,51.33,0,0,0,103.44,44.42Z"/></g></g></svg>