<svg xmlns="http://www.w3.org/2000/svg" xmlns:xlink="http://www.w3.org/1999/xlink" viewBox="0 0 109.91 57.56"><defs><style>.cls-1{fill:url(#linear-gradient);}.cls-2{fill:url(#linear-gradient-2);}</style><linearGradient id="linear-gradient" x1="71.02" y1="54.36" x2="31.85" y2="-8" gradientUnits="userSpaceOnUse"><stop offset="0" stop-color="#020a19"/><stop offset="0.13" stop-color="#040d1e"/><stop offset="0.28" stop-color="#08172d"/><stop offset="0.45" stop-color="#102845"/><stop offset="0.63" stop-color="#1b3f66"/><stop offset="0.76" stop-color="#255384"/><stop offset="0.82" stop-color="#295688"/><stop offset="0.88" stop-color="#365e96"/><stop offset="0.94" stop-color="#4c6cab"/><stop offset="1" stop-color="#647cc4"/></linearGradient><linearGradient id="linear-gradient-2" x1="9.45" y1="8.29" x2="77.81" y2="39.07" gradientUnits="userSpaceOnUse"><stop offset="0" stop-color="#647cc4"/><stop offset="0.1" stop-color="#5b76bb"/><stop offset="0.59" stop-color="#345d93"/><stop offset="0.84" stop-color="#255384"/></linearGradient></defs><title>Asset 1</title><g id="Layer_2" data-name="Layer 2"><g id="Ñëîé_1" data-name="Ñëîé 1"><circle class="cls-1" cx="54.95" cy="28.78" r="28.78"/><path class="cls-2" d="M109.65,9.31c-.92-2.59-4.06-5.74-20.51-3.21-4.1.63-8.63,1.56-13.46,2.74-7.8,1.92-16.37,4.51-25.11,7.62-1,.36-12.51,4.49-24.28,10-14,6.58-28.39,15.15-26,21.77.69,1.91,2.58,4.14,10.2,4.14a68.77,68.77,0,0,0,10.32-.93c4.1-.63,8.63-1.56,13.46-2.74a29,29,0,0,1-3.3-4.11C15.31,48.27,6.06,48.3,4.79,46.7c0-2.12,7.12-8,21.53-15A251.47,251.47,0,0,1,52.18,21,250.89,250.89,0,0,1,79,13C88.29,10.78,95.35,9.9,99.8,9.9c2.93,0,4.74.38,5.32,1-.1,2.18-7.28,8-21.53,14.93.09,1,.14,1.93.14,2.92,0,.78,0,1.54-.11,2.3C97.62,24.5,112,15.93,109.65,9.31Z"/></g></g></svg>