<svg xmlns="http://www.w3.org/2000/svg" xmlns:xlink="http://www.w3.org/1999/xlink" viewBox="0 0 2284.06 452.99"><defs><style>.cls-1{fill:url(#Áåçûìÿííûé_ãðàäèåíò_28);}.cls-2{fill:url(#Áåçûìÿííûé_ãðàäèåíò_16);}.cls-3{fill:url(#Áåçûìÿííûé_ãðàäèåíò_16-2);}.cls-4{fill:url(#Áåçûìÿííûé_ãðàäèåíò_16-3);}.cls-5{fill:url(#Áåçûìÿííûé_ãðàäèåíò_16-4);}.cls-6{fill:url(#Áåçûìÿííûé_ãðàäèåíò_16-5);}.cls-7{fill:#d95348;}.cls-8{fill:#c83c42;}.cls-9{fill:#cb4043;}.cls-10{fill:#c0323e;}.cls-11{fill:#ba2a3c;}.cls-12{fill:#bf303e;}.cls-13{fill:#e05c4b;}.cls-14{fill:#b8273b;}.cls-15{fill:#b11e38;}.cls-16{fill:#c2343f;}.cls-17{fill:#c2353f;}.cls-18{fill:#bd2e3d;}.cls-19{fill:#d24946;}.cls-20{fill:#d34b46;}.cls-21{fill:#cd4344;}.cls-22{fill:#eb6a50;}</style><linearGradient id="Áåçûìÿííûé_ãðàäèåíò_28" x1="-91.23" y1="596.65" x2="107.47" y2="596.65" gradientUnits="userSpaceOnUse"><stop offset="0" stop-color="#b21f39"/><stop offset="0.53" stop-color="#d34b46"/><stop offset="0.97" stop-color="#f17252"/></linearGradient><linearGradient id="Áåçûìÿííûé_ãðàäèåíò_16" x1="668.63" y1="532.93" x2="794.63" y2="579.43" gradientUnits="userSpaceOnUse"><stop offset="0" stop-color="#f17252"/><stop offset="0.35" stop-color="#d54d47"/><stop offset="0.78" stop-color="#b7253b"/><stop offset="1" stop-color="#ab1636"/></linearGradient><linearGradient id="Áåçûìÿííûé_ãðàäèåíò_16-2" x1="979.65" y1="587.94" x2="1054.01" y2="667.35" gradientTransform="matrix(1.39, 0.13, -0.04, 1, -284.11, -102.93)" xlink:href="#Áåçûìÿííûé_ãðàäèåíò_16"/><linearGradient id="Áåçûìÿííûé_ãðàäèåíò_16-3" x1="480" y1="538.17" x2="480" y2="879.39" xlink:href="#Áåçûìÿííûé_ãðàäèåíò_16"/><linearGradient id="Áåçûìÿííûé_ãðàäèåíò_16-4" x1="377.34" y1="511.66" x2="377.34" y2="1015.9" xlink:href="#Áåçûìÿííûé_ãðàäèåíò_16"/><linearGradient id="Áåçûìÿííûé_ãðàäèåíò_16-5" x1="369.4" y1="511.66" x2="369.4" y2="1015.9" xlink:href="#Áåçûìÿííûé_ãðàäèåíò_16"/></defs><title>Asset 1</title><g id="Layer_2" data-name="Layer 2"><g id="Ñëîé_1" data-name="Ñëîé 1"><path class="cls-1" d="M-91.23,626s26.62-13.08,38-21a16.78,16.78,0,0,1,5-2.36C-33.28,598.34,34,579,61.44,569.92a16.4,16.4,0,0,1,6-.82,235.39,235.39,0,0,0,40.05-1.8Z" transform="translate(662.03 -525.01)"/><path class="cls-2" d="M592.74,529.25s22.77-1.59,31.42-3.12a21.69,21.69,0,0,1,5.4-.25C642.3,526.85,692,531,754,541.33a23.6,23.6,0,0,1,3.7.94l37.27,13Z" transform="translate(662.03 -525.01)"/><path class="cls-3" d="M997.25,610.08s22.16,4.59,36,3.8a21.83,21.83,0,0,1,5.08.26c6.41,1.15,24.14,5,57.28,16.81,30.91,11,45.47,19.52,51.23,23.45,1.93,1.31,3,2.89,3,4.41a11.78,11.78,0,0,0,4.16,9.18S1013.46,615.44,997.25,610.08Z" transform="translate(662.03 -525.01)"/><path class="cls-4" d="M1622,978C1323.79,697.14,922,525,480,525S-363.79,697.14-662,978Z" transform="translate(662.03 -525.01)"/><path class="cls-5" d="M-293.68,782.59c16.51.23,33.43,3,49.83,5.19,31.42,4.21,64.67,3.54,96.29-.49,5.74-.73,11.46-1.55,17.19-2.32,4.4-.6.38,0-.43.07,3.91-.52,7.83-1,11.7-1.73,7.79-1.54,15.52-3.68,23.18-5.77,15.39-4.19,30.59-9,45.75-13.94,29.72-9.67,59.33-19.88,89.8-27q11-2.55,22.09-4.52c3.81-.68,7.65-1.19,11.45-1.87l.93-.17q3.21-.42,6.42-.79c16.67-1.93,33.42-3.13,50.18-4,67.12-3.68,134.33-5.65,200.48-18.74,31.54-6.24,63.39-12.51,94.37-21.15s62.14-17.47,93.33-26q22.89-6.24,45.77-12.46c15.13-4.13,31.11-6.38,46.56-9.21,31.57-5.78,63.21-10.84,95.16-14,62.64-6.15,126.79-8.17,188.6,5.69,31,6.94,59.87,19.27,89.79,29.5,30.56,10.45,62.15,15.47,94.39,16.57,29.39,1,58.82-.47,88.14-2.52Q1136,658.77,1104,645.81c-30.93.15-61.68-1.61-91.72-9.95-31-8.61-60.28-22.6-91.33-31.25s-63.07-13.14-95.11-15.07c-65-3.91-130.45,2.28-194.94,10-32.59,3.9-65,8.66-97.59,12.06s-65,7.2-97.35,10.46q-11.23,1.13-22.47,2.22c-2.29.22-17.39,2.07-13.11,1.51-7.27,1-7.05,1-13.12,1.75q-24.37,3.21-48.79,6-11.28,1.26-22.57,2.39c-4.38.44-8.78.81-13.17,1.27-2.92.31-5.79.64-8.72,1l-3.77.51c1.82-.24,1.58-.22-.7.08-16.35,2-32.7,4-49.1,5.54-68.67,6.42-138.19,4-206.14,17.33-31.34,6.14-61.73,16.13-92,26.07s-61,19-92.09,26.68c-18.06,4.47-33.56,6.38-48,10-15.85,3.92-32.42,5.53-47.83,8.84s-31.14,7.62-46.81,9.32c-16.7,1.81-33.73,2.22-50.52,3.17l-6.82.37q-31.84,18.33-62.8,38c23.2-.47,46.41-.93,69.62-1.24C-326.56,782.63-310.1,782.37-293.68,782.59Z" transform="translate(662.03 -525.01)"/><path class="cls-6" d="M-415.06,971.42c61.87-11.85,124.3-20.43,186.55-30S-104.25,921.07-43.41,905c61.8-16.29,121-39.88,180.39-63.1,60-23.46,120.34-47.93,183-63.31,65.27-16,132.3-21.2,198.62-31.31,132.36-20.18,265.49-49.83,400-48.17,66.51.82,131.54,11.81,196.75,24,32.46,6.07,65.31,10.91,97.55,17.89,30.55,6.62,61.72,12.32,92.91,14.74,7.29.57,14.71.87,22.14.9q-15.68-9.3-31.57-18.25c-45.77.4-91.73-6.55-135.8-17.49-61.84-15.34-122.7-31.4-186.45-36.41-130.87-10.3-261,11.79-389.59,33.4-65.3,11-131.05,22.64-197.05,28.42-63.68,5.58-126.65,13.2-188,31.74-60,18.13-117.45,44.44-176.75,64.85C-35.81,863.09-96.06,877.14-157,888s-122.26,18.89-183.41,28.19c-60.51,9.2-122.4,18.13-181,36.24-14.39,4.45-28.78,9-42.77,14.62-8.42,3.36-16.7,7.23-25,11h142.23C-436.34,975.69-425.72,973.46-415.06,971.42Z" transform="translate(662.03 -525.01)"/><ellipse class="cls-7" cx="801.58" cy="620.36" rx="23.56" ry="88.24" transform="translate(720.31 784.48) rotate(-80.57)"/><path class="cls-8" d="M716.78,610.4c2.13-12.84,42.83-16.77,90.91-8.79,39.76,6.61,72.09,19.29,80.89,30.74C886,619.9,850.5,604.6,805.44,597.12c-48.08-8-88.78-4-90.91,8.79-.37,2.22.47,4.56,2.3,7A6.63,6.63,0,0,1,716.78,610.4Z" transform="translate(662.03 -525.01)"/><ellipse class="cls-9" cx="234.39" cy="700.25" rx="142.43" ry="48.68" transform="translate(580.9 -492.39) rotate(-6.79)"/><path class="cls-10" d="M375.86,683.75c-2.65-26.76-68.13-41.07-146.26-32S90.28,690,92.92,716.76a17.43,17.43,0,0,0,.39,2.18c21.15-19,68.65-35.9,125-42.47,76-8.87,140,4.42,145.89,29.76C372.35,698.88,376.6,691.22,375.86,683.75Z" transform="translate(662.03 -525.01)"/><path class="cls-11" d="M227.1,659.3c78.13-9.12,143.61,5.19,146.26,32a17.57,17.57,0,0,1-.1,3.9,19.79,19.79,0,0,0,2.6-11.4c-2.65-26.76-68.13-41.07-146.26-32C155.26,660.48,96.29,687.23,93,712.86,105.43,689.69,160,667.13,227.1,659.3Z" transform="translate(662.03 -525.01)"/><ellipse class="cls-12" cx="-123.32" cy="692.76" rx="67.43" ry="18.82" transform="translate(463.85 -531.9) rotate(-16.2)"/><path class="cls-13" d="M-183.32,711.38c-2.9-10,23.74-26.5,59.5-36.89,15.31-4.44,29.8-7,41.6-7.78-12.55.25-28.92,2.92-46.35,8-35.76,10.39-62.4,26.91-59.5,36.89,1.66,5.71,12.63,8,28.4,7C-172.86,718.89-181.83,716.49-183.32,711.38Z" transform="translate(662.03 -525.01)"/><ellipse class="cls-14" cx="707.98" cy="767.98" rx="67.15" ry="161.98" transform="translate(561.55 904.34) rotate(-86.61)"/><path class="cls-15" d="M712,710.76c84,5,151.42,35.6,157.34,70a26.86,26.86,0,0,0,.39-3.23c2.19-37-68.43-71.32-157.73-76.61s-163.48,20.45-165.67,57.47a28.48,28.48,0,0,0,.39,6.58C552.86,729.72,625.27,705.63,712,710.76Z" transform="translate(662.03 -525.01)"/><path class="cls-16" d="M704,835c74.83,4.43,139-12.92,159.14-40.44-22.21-26.23-79.55-47.25-147.87-51.3-74.82-4.43-139,12.92-159.14,40.44C578.36,809.94,635.7,831,704,835Z" transform="translate(662.03 -525.01)"/><ellipse class="cls-17" cx="1122.8" cy="742.58" rx="45.46" ry="134.28" transform="translate(721.87 1043.55) rotate(-71.33)"/><path class="cls-18" d="M1002.19,710.31c8.51-23.63,72.31-23.4,142.51.5,49,16.69,88.19,40.52,104.46,61.42-8.91-23-53.05-52.71-111-72.42-70.2-23.9-134-24.13-142.51-.5-2.57,7.12.22,15.6,7.24,24.62C1001,719,1000.7,714.44,1002.19,710.31Z" transform="translate(662.03 -525.01)"/><ellipse class="cls-7" cx="397.79" cy="561.48" rx="122.04" ry="18.89" transform="translate(634.53 -504.48) rotate(-2.86)"/><path class="cls-19" d="M278,570.81c10.53-9.23,59.57-18.24,118.84-21.2,59.95-3,110.09,1.22,120.72,9.54,1.43-1.25,2.17-2.51,2.11-3.76-.52-10.42-55.51-16.14-122.83-12.78s-121.47,14.53-121,24.95A4.67,4.67,0,0,0,278,570.81Z" transform="translate(662.03 -525.01)"/><ellipse class="cls-20" cx="559.16" cy="628.1" rx="12.37" ry="35.87" transform="translate(568.75 633.65) rotate(-87.44)"/><path class="cls-21" d="M523.62,628.27c4.06-5.47,19.19-8.91,36.59-7.92,17.6,1,31.58,6.2,33.72,12.13a5.27,5.27,0,0,0,1-2.34c1-6.79-14.2-13.21-34-14.34s-36.6,3.47-37.6,10.26A4.51,4.51,0,0,0,523.62,628.27Z" transform="translate(662.03 -525.01)"/><ellipse class="cls-7" cx="123.39" cy="601.67" rx="24.83" ry="7.97" transform="translate(567.77 -497.67) rotate(-9.17)"/><path class="cls-22" d="M100.59,605.7c-.46-4.38,10.15-9.64,23.7-11.75a63.26,63.26,0,0,1,15.51-.64,59.6,59.6,0,0,0-17.24.43c-13.55,2.1-24.16,7.36-23.7,11.75.26,2.5,4.09,4.18,9.85,4.76C103.92,609.52,100.82,608,100.59,605.7Z" transform="translate(662.03 -525.01)"/></g></g></svg>