<svg xmlns="http://www.w3.org/2000/svg" xmlns:xlink="http://www.w3.org/1999/xlink" viewBox="0 0 165.33 165.91"><defs><style>.cls-1{fill:#1f3350;}.cls-2{fill:#020814;}.cls-3{fill:url(#Áåçûìÿííûé_ãðàäèåíò_2);}.cls-4{fill:url(#Áåçûìÿííûé_ãðàäèåíò_2-2);}.cls-5{fill:url(#Áåçûìÿííûé_ãðàäèåíò_2-3);}.cls-6{fill:url(#Áåçûìÿííûé_ãðàäèåíò_2-4);}.cls-7{fill:url(#Áåçûìÿííûé_ãðàäèåíò_2-5);}.cls-8{fill:url(#Áåçûìÿííûé_ãðàäèåíò_2-6);}.cls-9{fill:url(#Áåçûìÿííûé_ãðàäèåíò_2-7);}.cls-10{fill:url(#Áåçûìÿííûé_ãðàäèåíò_2-8);}.cls-11{fill:url(#Áåçûìÿííûé_ãðàäèåíò_2-9);}.cls-12{fill:#2e4e7c;}.cls-13{fill:#061123;}.cls-14{fill:#17314c;}.cls-15{fill:#2a4872;}.cls-16{fill:#284b73;}.cls-17{fill:#4369a7;}</style><linearGradient id="Áåçûìÿííûé_ãðàäèåíò_2" x1="140.01" y1="143.12" x2="26.85" y2="23.41" gradientUnits="userSpaceOnUse"><stop offset="0" stop-color="#020814"/><stop offset="0.1" stop-color="#060e1d"/><stop offset="0.25" stop-color="#101d34"/><stop offset="0.45" stop-color="#21375b"/><stop offset="0.67" stop-color="#395a90"/><stop offset="0.76" stop-color="#4369a7"/><stop offset="0.85" stop-color="#4b6eae"/><stop offset="1" stop-color="#627ac2"/><stop offset="1" stop-color="#627ac2"/></linearGradient><linearGradient id="Áåçûìÿííûé_ãðàäèåíò_2-2" x1="156.16" y1="117.82" x2="25.45" y2="3.76" xlink:href="#Áåçûìÿííûé_ãðàäèåíò_2"/><linearGradient id="Áåçûìÿííûé_ãðàäèåíò_2-3" x1="160.62" y1="112.71" x2="29.9" y2="-1.35" xlink:href="#Áåçûìÿííûé_ãðàäèåíò_2"/><linearGradient id="Áåçûìÿííûé_ãðàäèåíò_2-4" x1="149.88" y1="125.02" x2="19.17" y2="10.96" xlink:href="#Áåçûìÿííûé_ãðàäèåíò_2"/><linearGradient id="Áåçûìÿííûé_ãðàäèåíò_2-5" x1="135.05" y1="142.02" x2="4.34" y2="27.96" xlink:href="#Áåçûìÿííûé_ãðàäèåíò_2"/><linearGradient id="Áåçûìÿííûé_ãðàäèåíò_2-6" x1="142.53" y1="133.44" x2="11.82" y2="19.38" xlink:href="#Áåçûìÿííûé_ãðàäèåíò_2"/><linearGradient id="Áåçûìÿííûé_ãðàäèåíò_2-7" x1="109.21" y1="171.62" x2="-21.5" y2="57.56" xlink:href="#Áåçûìÿííûé_ãðàäèåíò_2"/><linearGradient id="Áåçûìÿííûé_ãðàäèåíò_2-8" x1="149.66" y1="125.27" x2="18.95" y2="11.21" xlink:href="#Áåçûìÿííûé_ãðàäèåíò_2"/><linearGradient id="Áåçûìÿííûé_ãðàäèåíò_2-9" x1="148.07" y1="127.1" x2="17.35" y2="13.04" xlink:href="#Áåçûìÿííûé_ãðàäèåíò_2"/></defs><title>Asset 2</title><g id="Layer_2" data-name="Layer 2"><g id="Planets"><path class="cls-1" d="M.28,89.43A65.86,65.86,0,0,1,3.89,102a81,81,0,0,1,1.59,10.41s5.32,5.78,7.25,2.06S4.67,78.08.28,89.43Z"/><path class="cls-2" d="M165.33,83.49s-4.76,4.54-5.45,13.6.68,13.34.68,13.34-3.16,2.22-7-1.92-1.38-17.61,3-23.23S164.83,80.56,165.33,83.49Z"/><path class="cls-1" d="M106.94,3.64S117,10,122.9,11.47a25.32,25.32,0,0,1,10.27,5.77s1.5,6-4.95,6.81S101.49,12,106.94,3.64Z"/><path class="cls-3" d="M164.81,73.26a41,41,0,0,0-2-9.72c-1.16-3.16-1.47-6.19-3.51-9-1.19-1.66-2.66-3.11-3.68-4.87-1.41-2.44-1.85-5.29-2.5-8-1.22-5.08-4.57-9.2-7.94-13.08a84,84,0,0,0-5.93-6.15c-.7-.66-6.1-4.51-6-5.14a2.06,2.06,0,0,1-.24.82c-1.45,2.51-8.4,1.21-15.52-2.9-.4-.23-.79-.46-1.17-.7l0,0c-6.06-3.76-10-8.33-9.33-10.84a78.59,78.59,0,0,0-8.36-2.1l-.23.06h0a6.12,6.12,0,0,1-.64.1l-.27,0-.43,0h-.75l-.39,0h0L95.1,1.7A7.71,7.71,0,0,1,91.48.47,82.83,82.83,0,0,0,53.36,5.34C47,7.74,41.6,11.65,35.8,15.15a26.34,26.34,0,0,0-4.66,3.3,36.21,36.21,0,0,0-4.3,5.66,47.88,47.88,0,0,1-8,8.86c-1.28,1.1-2.62,2.14-3.85,3.3-6.33,6-9.33,15.16-11.71,23.34a82.55,82.55,0,0,0-3,29.82,2.21,2.21,0,0,1,1.29-1.06C4,87.8,7.27,92.82,8.85,99.59c.14.6.26,1.2.37,1.78l.06.34c.1.59.18,1.17.24,1.73v.06c.07.59.11,1.17.14,1.73v0c0,.57,0,1.12,0,1.65a13.94,13.94,0,0,1-.33,2.94s0,0,0,.08c0,.2-.1.39-.16.57l0,.13c-.05.16-.11.32-.17.47l-.07.15c-.06.13-.12.26-.18.37l-.11.18c-.06.09-.12.19-.18.27s-.11.12-.16.18-.12.13-.18.18a1.63,1.63,0,0,1-.22.17l-.15.1a1.65,1.65,0,0,1-.42.16,2.28,2.28,0,0,1-1.83-.48A75.54,75.54,0,0,0,18,133.78c5,6,10.53,12,17.82,15.19,3.29,1.43,6.83,2.24,10.08,3.76,5.09,2.39,9.28,6.46,14.46,8.64,6.58,2.76,14,2.2,21.05,3.55a40.13,40.13,0,0,0,5.85,1,24.18,24.18,0,0,0,5.79-.68c19.17-4,37.07-12,50.47-26.57a83.32,83.32,0,0,0,10-13.34q2.12-3.53,3.89-7.25c.37-.78,2.73-7.59,3.17-7.63a4.83,4.83,0,0,1-1.37,0,5.16,5.16,0,0,1-.77-.21l-.25-.11a4,4,0,0,1-.47-.22,2.4,2.4,0,0,1-.29-.19c-.13-.08-.26-.16-.38-.25l-.3-.27-.32-.29c-.1-.11-.2-.22-.29-.34a3,3,0,0,1-.28-.33c-.1-.12-.19-.26-.28-.39l-.24-.37c-.09-.14-.17-.3-.25-.45l-.21-.4c-.08-.16-.15-.33-.22-.5l-.12-.26,0,.05a19.72,19.72,0,0,1-.77-10.52C155.1,87.79,159.67,82.28,164,83a4.69,4.69,0,0,1,1.35.46A86.23,86.23,0,0,0,164.81,73.26Z"/><path class="cls-4" d="M38.38,43.8c11-6.12,21.9-12.33,33.15-17.89,5.53-2.73,11.12-5.31,16.83-7.64,4.67-1.91,9.32-3.84,13.28-7a15.92,15.92,0,0,0,5.25-6.85,2.36,2.36,0,0,1,0-.76c-1.49-.46-3-.87-4.54-1.25a20.49,20.49,0,0,1-3.9,3.2c-4.47,3.17-9.72,5-14.79,6.94-6,2.27-11.9,4.71-17.71,7.4-11.78,5.46-23.12,11.7-34.48,18a206.13,206.13,0,0,1-18.47,9.34,44.19,44.19,0,0,1-6.4,2.24c-.93,2.31-1.72,4.67-2.44,7,.47,0,1,0,1.43,0C17.84,55.84,28,49.59,38.38,43.8Z"/><path class="cls-5" d="M73.56.5l-.32,0c-2.71.32-5.41.77-8.08,1.34l-.09,0c-11,4.64-21.13,11.29-31,18-2.75,1.85-5.46,3.77-8.22,5.62-.89,1.17-1.81,2.31-2.8,3.4,5.75-3.48,11.15-7.84,16.41-11.3C50,10.63,61.39,4.29,73.56.5Z"/><path class="cls-6" d="M86,44.88c15-7,30.08-13.81,42.44-25.1l.5-.48a26.3,26.3,0,0,1-9.34-3,154.42,154.42,0,0,1-16.17,11.55c-14.85,9.54-30.56,17.7-46.12,26C41,62.56,24.69,72.59,7,78c-2.27.69-4.57,1.27-6.89,1.76,0,.64,0,1.29-.06,1.94,11.2-1.51,22.11-5.38,32.48-10C50.73,63.68,67.94,53.35,86,44.88Z"/><path class="cls-7" d="M57.75,133.38a92.34,92.34,0,0,1,14.21.06c4.81.47,9.58,1.28,14.42,1.29a63.55,63.55,0,0,0,26.06-5.52,225.29,225.29,0,0,0,22.65-12.31c6.74-4.05,13.18-9,17.16-15.94.41-.71.8-1.43,1.19-2.14a23.28,23.28,0,0,1,.34-3.47c1.15-6.58,4.76-11.61,8.52-12.3a31.93,31.93,0,0,1,2.78-3.21c.06-.06.12-.13.19-.19q-.11-3.18-.46-6.39v0a82.55,82.55,0,0,0-7.79,8c-5.35,6.86-7.5,15.49-14.48,21.12-6.7,5.39-15.36,8.88-23.09,12.51-8.17,3.83-16.85,7.59-25.67,9.61-9.53,2.19-19.29.47-28.94,1.73s-19.5,3.54-29.2,5.37c-4.78.91-9.59,1.67-14.39,2.48l-2.67.46c.77.91,1.54,1.82,2.34,2.72,2.69-.34,5.44-.5,8-.82C38.48,135.19,48.14,133.93,57.75,133.38Z"/><path class="cls-8" d="M42.86,117.85a51,51,0,0,0,12.62-2.95c4.35-1.51,8,0,12.48.37a55.39,55.39,0,0,0,14.25-.84c9-1.59,17.48-5.35,25.44-9.64s16.28-8.81,23-14.63c7.09-6.12,9.48-15.3,13.26-23.52a211.08,211.08,0,0,1,10.44-19.8c-.55-1.7-.88-3.49-1.3-5.23a19.07,19.07,0,0,0-1.17-3.36l-.7.92a212.65,212.65,0,0,0-14.94,23c-4.08,7.27-6.8,15.73-13.94,20.58a202.55,202.55,0,0,1-21.9,13c-7.15,3.63-14.89,6.73-22.92,7.65-8.88,1-17.47-1.91-25.53,3.26-3.52,2.26-6.3,4.13-10.51,4.85-4.88.83-9.79,1.55-14.68,2.32-6.47,1-12.94,2.08-19.41,3.1.54,1.19,1.11,2.37,1.71,3.52l19.61-1.47C33.42,118.57,38.15,118.28,42.86,117.85Z"/><path class="cls-9" d="M66.71,150a95.88,95.88,0,0,1,14.83,1.65,38.79,38.79,0,0,0,13.92.47c9.21-1.59,18.27-5.24,27.13-8.14,2.11-.69,1.24-4-.92-3.34-4.57,1.31-9.15,2.61-13.7,4s-8.93,3-13.54,3.74c-9.73,1.62-19.25-3-28.92-3.59a75.54,75.54,0,0,0-13.11.31,30.23,30.23,0,0,1-5.76.45c-2.56-.19-5.24-.31-7.81-.24a42.36,42.36,0,0,0-7.57,1.18A32.28,32.28,0,0,0,35.81,149c3.29,1.43,6.83,2.24,10.08,3.76l.5.26a20.78,20.78,0,0,1,4.44-1.77A60.84,60.84,0,0,1,66.71,150Z"/><path class="cls-10" d="M46.8,88.66c4.22-.55,8.6-1,12.65-2.32a89.72,89.72,0,0,0,13.71-6.18c8.12-4.29,15.69-9.54,23.4-14.51,8-5.2,16.24-10.22,24.06-15.74a118.55,118.55,0,0,0,19.82-18c1.21-1.34,2.53-2.79,3.87-4.33q-1.47-1.64-3-3.18a89.88,89.88,0,0,1-12.92,11.79c-7.73,5.81-16.49,10-25,14.55q-13.45,7.14-26.9,14.29c-8.48,4.5-16.36,9.6-25.27,13.29A225.89,225.89,0,0,1,23,87.53,93.14,93.14,0,0,1,8.63,90.44c-1.17.12-2.33.19-3.49.23a18.7,18.7,0,0,1,2.08,3.84,110,110,0,0,0,11.31-1.19C28,91.93,37.31,89.91,46.8,88.66Z"/><path class="cls-11" d="M141.67,126c-4.21,3.63-8.79,6.79-12.95,10.47-.88.77.24,1.89,1.15,1.49,7.65-3.34,14.21-9.31,20.34-14.88,2.78-2.53,5.5-5.11,8.2-7.72.83-2.2,1.87-4.94,2.15-5a4.83,4.83,0,0,1-1.37,0,5.16,5.16,0,0,1-.77-.21l-.25-.11a4,4,0,0,1-.47-.22l-.07,0c-1.41,1.65-2.84,3.28-4.31,4.89A133.87,133.87,0,0,1,141.67,126Z"/><circle class="cls-1" cx="105.12" cy="51.14" r="11.47"/><path class="cls-12" d="M105,39.67h-.24A11,11,0,1,1,93.67,50.89a2,2,0,0,0,0,.25A11.33,11.33,0,1,0,105,39.67Z"/><ellipse class="cls-13" cx="117.5" cy="86.88" rx="5.95" ry="5.06" transform="translate(10.44 186.34) rotate(-79.37)"/><path class="cls-14" d="M118.6,81h-.11c2.56.55,4.17,3.41,3.6,6.46s-3.18,5.19-5.81,4.7-4.24-3.32-3.72-6.36a.5.5,0,0,0,0,.13c-.61,3.23,1.13,6.26,3.87,6.78s5.47-1.69,6.07-4.92S121.34,81.55,118.6,81Z"/><ellipse class="cls-1" cx="36.2" cy="120.55" rx="8.52" ry="9.62" transform="translate(-53.91 32.68) rotate(-29.01)"/><path class="cls-1" d="M31.54,112.13l-.16.1c3.92-2,9-.21,11.43,4.18s1.27,9.81-2.67,12-9,.39-11.49-3.92c0,.06.06.13.1.19,2.57,4.64,8,6.56,12.12,4.28s5.36-7.9,2.79-12.55S35.66,109.85,31.54,112.13Z"/><path class="cls-15" d="M26.82,52.31c-2.15,3.88-6.27,5.7-9.2,4.08s-3.59-6.09-1.44-10,6.26-5.71,9.2-4.08S29,48.43,26.82,52.31Z"/><path class="cls-16" d="M25.38,42.35l-.12-.06c2.71,1.61,3.29,5.8,1.27,9.46s-6,5.46-8.81,3.91-3.4-5.71-1.45-9.38l-.09.15c-2.15,3.87-1.5,8.33,1.44,10s7.05-.2,9.2-4.08S28.32,44,25.38,42.35Z"/><ellipse class="cls-2" cx="92.65" cy="143.31" rx="19.33" ry="14.2" transform="translate(-21.13 16.13) rotate(-8.93)"/><path class="cls-2" d="M111.75,140.3c0-.27-.1-.54-.16-.8.58,7.46-6.81,14.62-17,16.22s-19.41-2.94-21.14-10.23c0,.27.06.55.1.82,1.22,7.75,10.75,12.69,21.3,11S113,148.05,111.75,140.3Z"/><circle class="cls-1" cx="53.09" cy="83.76" r="13.32"/><path class="cls-12" d="M61.56,73.48A13.32,13.32,0,0,1,43.82,93.33,13.32,13.32,0,1,0,61.56,73.48Z"/><path class="cls-2" d="M139,124.67c-1.56,3.18-4.88,4.73-7.42,3.49s-3.34-4.84-1.78-8,4.88-4.73,7.42-3.48S140.56,121.5,139,124.67Z"/><path class="cls-2" d="M139,124c-1.56,3.17-4.88,4.73-7.42,3.48a4.93,4.93,0,0,1-2.57-4.35,5.11,5.11,0,0,0,2.57,5c2.54,1.24,5.86-.31,7.42-3.49a7.64,7.64,0,0,0,.79-3.65A7.79,7.79,0,0,1,139,124Z"/><path class="cls-12" d="M76.93,16.34c4,6.87-.7,17-10.43,22.6s-20.82,4.6-24.79-2.27.7-17,10.43-22.61S73,9.47,76.93,16.34Z"/><path class="cls-17" d="M76.93,16.34c-2.31-4-7.05-6-12.52-5.88,5,.13,9.34,2.13,11.5,5.88,4,6.87-.7,17-10.42,22.6a26,26,0,0,1-12.28,3.61A25.6,25.6,0,0,0,66.5,38.94C76.23,33.33,80.89,23.21,76.93,16.34Z"/><circle class="cls-1" cx="72.2" cy="100.82" r="3.81"/><path class="cls-12" d="M74.51,97.8a3.77,3.77,0,0,1,.85,2.39,3.81,3.81,0,0,1-3.81,3.8,3.73,3.73,0,0,1-2.31-.79,3.8,3.8,0,1,0,5.27-5.4Z"/></g></g></svg>