<svg xmlns="http://www.w3.org/2000/svg" xmlns:xlink="http://www.w3.org/1999/xlink" viewBox="0 0 244.78 244.78"><defs><style>.cls-1{fill:url(#linear-gradient);}.cls-2{fill:url(#linear-gradient-2);}.cls-3{fill:url(#linear-gradient-3);}.cls-4{fill:url(#linear-gradient-4);}.cls-5{fill:url(#linear-gradient-5);}.cls-6{fill:url(#linear-gradient-6);}.cls-7{fill:url(#linear-gradient-7);}.cls-8{fill:url(#linear-gradient-8);}.cls-9{fill:url(#linear-gradient-9);}.cls-10{fill:url(#linear-gradient-10);}.cls-11{fill:url(#linear-gradient-11);}.cls-12{fill:url(#linear-gradient-12);}</style><linearGradient id="linear-gradient" x1="2336.39" y1="62.79" x2="2517.99" y2="-98.62" gradientTransform="matrix(-0.78, -0.62, -0.62, 0.78, 2009.43, 1632.13)" gradientUnits="userSpaceOnUse"><stop offset="0" stop-color="#020814"/><stop offset="0.12" stop-color="#040b19"/><stop offset="0.25" stop-color="#091528"/><stop offset="0.4" stop-color="#122540"/><stop offset="0.56" stop-color="#1f3b61"/><stop offset="0.73" stop-color="#2e588c"/><stop offset="0.76" stop-color="#325e96"/><stop offset="0.83" stop-color="#36619a"/><stop offset="0.91" stop-color="#4468a6"/><stop offset="0.99" stop-color="#5975b9"/><stop offset="1" stop-color="#5c77bc"/></linearGradient><linearGradient id="linear-gradient-2" x1="2288.34" y1="-44.09" x2="2462.79" y2="-159.96" gradientTransform="matrix(-0.99, 0.11, 0.11, 0.99, 2524.27, -144.4)" gradientUnits="userSpaceOnUse"><stop offset="0" stop-color="#020814"/><stop offset="0.11" stop-color="#040b19"/><stop offset="0.25" stop-color="#091528"/><stop offset="0.4" stop-color="#122540"/><stop offset="0.56" stop-color="#1f3b61"/><stop offset="0.72" stop-color="#2e588c"/><stop offset="0.75" stop-color="#325e96"/><stop offset="0.83" stop-color="#36619a"/><stop offset="0.91" stop-color="#4468a6"/><stop offset="0.99" stop-color="#5975b9"/><stop offset="1" stop-color="#5c77bc"/></linearGradient><linearGradient id="linear-gradient-3" x1="2297.27" y1="-30.65" x2="2471.72" y2="-146.52" xlink:href="#linear-gradient-2"/><linearGradient id="linear-gradient-4" x1="2307.05" y1="-15.92" x2="2481.5" y2="-131.79" xlink:href="#linear-gradient-2"/><linearGradient id="linear-gradient-5" x1="2315.92" y1="-2.56" x2="2490.49" y2="-118.5" xlink:href="#linear-gradient-2"/><linearGradient id="linear-gradient-6" x1="2352.8" y1="52.96" x2="2527.25" y2="-62.91" xlink:href="#linear-gradient-2"/><linearGradient id="linear-gradient-7" x1="2364.11" y1="70" x2="2538.56" y2="-45.87" xlink:href="#linear-gradient-2"/><linearGradient id="linear-gradient-8" x1="2384.6" y1="100.85" x2="2559.06" y2="-15.02" xlink:href="#linear-gradient-2"/><linearGradient id="linear-gradient-9" x1="2339.22" y1="32.52" x2="2513.67" y2="-83.35" xlink:href="#linear-gradient-2"/><linearGradient id="linear-gradient-10" x1="2327.88" y1="15.44" x2="2502.33" y2="-100.43" xlink:href="#linear-gradient-2"/><linearGradient id="linear-gradient-11" x1="2378.31" y1="91.38" x2="2552.76" y2="-24.49" xlink:href="#linear-gradient-2"/><linearGradient id="linear-gradient-12" x1="2388.96" y1="107.41" x2="2563.41" y2="-8.46" xlink:href="#linear-gradient-2"/></defs><title>Asset 1</title><g id="Layer_2" data-name="Layer 2"><g id="Ñëîé_1" data-name="Ñëîé 1"><circle class="cls-1" cx="122.39" cy="122.39" r="122.38" transform="translate(-50.7 122.39) rotate(-45)"/><path class="cls-2" d="M91.48,6.53c.87,1.9,4.71,3.91,6.41,5.14,4.12,2.95,8.22,5.92,12.42,8.75,17.34,11.68,36.69,22.1,58,23.25,5.09.27,11.29.43,16.16-1.43,4.53-1.74,6.2-7.76,4.35-11.91-1.44-3.23-4.91-5.88-7.63-8A66.21,66.21,0,0,0,147.3,8.43c-1-.11-2-.2-3-.25-3.48-.19-4.39-.72-6.63,2.26-1.93,2.56-2.09,2.65-.19,5a22.5,22.5,0,0,0,4,3.53,42.76,42.76,0,0,0,8.32,4.92c3.11,1.4,11.54,5.2,15.09,3.7.35-.53.7-1.06,1-1.59q2.55-2.16-1-2.52c-1.07-.85-2.93-1.31-4.18-1.87-2.8-1.25-5.54-2.53-8.25-4a.52.52,0,0,1,.42-.95c1.46.53,25.53,9.16,15.22,12.42-4.63,1.47-11.87-1.08-16.2-2.65-5.46-2-12.09-5.33-15.79-10-1.66-2.09-3.41-5.48-1.74-8,2.51-3.84,10.71-2,14.21-1.56a67.31,67.31,0,0,1,36,16c7.16,6.33,11.73,17.3-.26,21-12.23,3.83-27.45.3-39.16-3.7-15-5.14-28.51-13.71-41.53-22.67-5-3.45-12.66-7.72-14.27-13l1.92-.51A5.27,5.27,0,0,0,91.48,6.53Z"/><path class="cls-3" d="M215.78,66.81c-11.65,6.08-25.11,3.32-37.31.77-14-3-28.12-5.75-41.88-9.81C113.27,50.9,90.05,39.59,75.25,19.59a61.73,61.73,0,0,1-5-7.91c1.23-.58,2.46-1.16,3.72-1.7.25.44.49.89.75,1.31,11,18,30.48,29.64,49.72,37,11.33,4.33,23.11,7.32,34.93,9.94,11.08,2.47,22.39,5.44,33.68,6.72,10.71,1.21,25.5-1.19,29.84-12.42q1.65,2.37,3.2,4.83A26.07,26.07,0,0,1,215.78,66.81Z"/><path class="cls-4" d="M189,90.87c-19.72-1.88-39-7.58-57.32-14.93-18-7.24-37.21-15.35-52.15-28A103.73,103.73,0,0,1,56.28,19.4c.68-.44,1.38-.87,2.07-1.3a105.47,105.47,0,0,0,26.56,28C102,58.57,122.63,67.32,142.44,74.51c20.31,7.37,41.89,12.43,63.61,11.85a124.69,124.69,0,0,0,15.8-1.44c5-.76,11.28-1.4,15.47-4.57.56,1.55,1.11,3.12,1.62,4.71-5.94,3.91-14.31,4.8-21,5.6A136.1,136.1,0,0,1,189,90.87Z"/><path class="cls-5" d="M204.55,103.88c-25,1.54-47.5,2.31-72-4.79-19.86-5.76-40-15.33-54.88-29.94-7.83-7.68-13-17.08-20.31-25.16-5-5.53-9.86-9.87-12.49-16.3l1.19-1c5,8.15,13.36,12.72,21.19,18.19,6.59,4.61,12.42,10.08,18.78,15a159.39,159.39,0,0,0,50,26.31C156,92.5,178.53,96,199.35,97c11.32.54,22.8-.73,34.07-1.87,2.66-.27,5.38-.48,8.1-.72q.73,3.18,1.32,6.43C229.94,103.3,216,103.18,204.55,103.88Z"/><path class="cls-6" d="M223.81,167.09c-12.88,1.12-25.61,3.41-38.38,5.36-22.68,3.47-46.29,6.09-68.87.54-19.4-4.76-37.46-14.93-53.95-25.91-17.8-11.85-34.19-25-43.82-44.53A142.29,142.29,0,0,1,9.11,76.07c1.19-2.9,2.5-5.74,3.9-8.53,1.15,3.15,2.31,6,3,8,8.36,24.36,24.5,38.24,44.65,53C79,142,98.57,153.1,120.4,159.87c28.46,8.82,56.75,4.47,85.79,2,9.62-.82,21.35-2.23,32.58-1.63-.66,2-1.37,4-2.12,6C232.23,166.34,227.87,166.74,223.81,167.09Z"/><path class="cls-7" d="M105.37,187.39c-13.78-4.27-26.5-11.39-39.1-18.3-9.77-5.37-18.68-10.89-25.71-19.67-9.24-11.54-20.9-20.25-30.54-31.33a130.58,130.58,0,0,1-8.93-12c.42-3.18,1-6.32,1.66-9.43C3.88,98.3,5,100,6.1,101.71c7.57,11.83,17,20.68,26.79,30.6,8.64,8.7,14.51,19.48,24.8,26.49A134.79,134.79,0,0,0,99.21,178c25.05,6.77,53,3.46,78.79,4.54,16.23.68,34.13,2.37,50.89.08q-1.32,2.34-2.74,4.6c-11,1.39-22.27,1.65-33.19,2.33C163.84,191.37,133.84,196.21,105.37,187.39Z"/><path class="cls-8" d="M.07,125.26a161.6,161.6,0,0,0,18,20.49c15.51,15.46,32.5,29.57,47.13,45.85.32.36-.17,1-.59.74C43.49,181.09,19.68,166.64,2.72,148c-.81-3.82-1.46-7.7-1.91-11.65C.38,132.62.16,128.93.07,125.26Z"/><path class="cls-9" d="M218.06,146.26c-11.91,1.17-23.48,4.22-35.56,3.86-40.15-1.19-83.56-6.85-115.32-33.46C53.72,105.38,41.13,91.45,33,75.85c-3.84-7.34-6.78-15.56-11.73-22.29q1.43-2.09,2.92-4.11C35.39,63,40.31,81.4,52,95c15.66,18.26,39.84,26.41,62.61,31.86,24.62,5.89,50,6.55,75,10.15,16.24,2.35,30.91,4.24,47.37,2.54,1.7-.17,4.25-.13,6.72-.29-.23,1.7-.52,3.39-.82,5.07C234.63,145.52,225.87,145.49,218.06,146.26Z"/><path class="cls-10" d="M244.21,125.25a5.41,5.41,0,0,1-.07-.58c-21.44-2-41.33,9.86-62.92,6.59-22.78-3.45-47.42-7.14-69.44-14-21.35-6.66-35.88-22-50.59-38.11-7.55-8.28-15.36-17.12-21-26.88a70.58,70.58,0,0,1-6-14.75c1-1,1.95-2,2.95-2.92C46.94,49.05,61,62.51,73.13,73.5c16.66,15,32.41,28.19,54.17,34.79,20.53,6.22,45.16,17.63,66.89,16,17.62-1.29,33.11-8.28,50.47-6.39.1,2.89.14,5.78,0,8.63A8.33,8.33,0,0,1,244.21,125.25Z"/><path class="cls-11" d="M135.1,214.18c-20.54-2.34-46.72-5.4-64-17.71-1.42-1,.26-3.09,1.67-2.11,18.24,12.71,48.49,15,70.11,16.66a226.61,226.61,0,0,0,37.93.13c10.36-1,20.38-3.91,30.7-4.93-2.77,2.94-5.68,5.76-8.73,8.42C180.23,214.5,157.76,216.76,135.1,214.18Z"/><path class="cls-12" d="M100.61,227.28a162.62,162.62,0,0,0,55.78,2.56c9.89-1.22,19-4.45,28.51-7.38,3.74-1.16,8.4-2.22,12.93-3.71a121.65,121.65,0,0,1-25,15.14A281.07,281.07,0,0,1,113,232.58c-36.44-5-65.88-22.75-93.76-44.37q-2.18-3.41-4.12-7C40.6,202,67.45,219.78,100.61,227.28Z"/></g></g></svg>