<svg xmlns="http://www.w3.org/2000/svg" xmlns:xlink="http://www.w3.org/1999/xlink" viewBox="0 0 206.57 165.91"><defs><style>.cls-1{fill:#1f3350;}.cls-2{fill:#020814;}.cls-3{fill:url(#Áåçûìÿííûé_ãðàäèåíò_4);}.cls-4{fill:url(#Áåçûìÿííûé_ãðàäèåíò_4-2);}.cls-5{fill:url(#Áåçûìÿííûé_ãðàäèåíò_4-3);}.cls-6{fill:url(#Áåçûìÿííûé_ãðàäèåíò_4-4);}.cls-7{fill:url(#Áåçûìÿííûé_ãðàäèåíò_4-5);}.cls-8{fill:url(#Áåçûìÿííûé_ãðàäèåíò_4-6);}.cls-9{fill:url(#Áåçûìÿííûé_ãðàäèåíò_4-7);}.cls-10{fill:url(#Áåçûìÿííûé_ãðàäèåíò_4-8);}.cls-11{fill:url(#Áåçûìÿííûé_ãðàäèåíò_4-9);}.cls-12{fill:#2e4e7c;}.cls-13{fill:#061123;}.cls-14{fill:#17314c;}.cls-15{fill:#2a4872;}.cls-16{fill:#284b73;}.cls-17{fill:#4369a7;}.cls-18{fill:url(#Áåçûìÿííûé_ãðàäèåíò_4-10);}.cls-19{fill:url(#Áåçûìÿííûé_ãðàäèåíò_4-11);}.cls-20{fill:url(#Áåçûìÿííûé_ãðàäèåíò_4-12);}.cls-21{fill:url(#Áåçûìÿííûé_ãðàäèåíò_4-13);}.cls-22{fill:url(#Áåçûìÿííûé_ãðàäèåíò_4-14);}.cls-23{fill:url(#Áåçûìÿííûé_ãðàäèåíò_4-15);}.cls-24{fill:url(#Áåçûìÿííûé_ãðàäèåíò_4-16);}.cls-25{fill:url(#Áåçûìÿííûé_ãðàäèåíò_4-17);}.cls-26{fill:url(#Áåçûìÿííûé_ãðàäèåíò_4-18);}.cls-27{fill:url(#Áåçûìÿííûé_ãðàäèåíò_4-19);}.cls-28{fill:url(#Áåçûìÿííûé_ãðàäèåíò_4-20);}.cls-29{fill:url(#Áåçûìÿííûé_ãðàäèåíò_4-21);}.cls-30{fill:url(#Áåçûìÿííûé_ãðàäèåíò_4-22);}.cls-31{fill:url(#Áåçûìÿííûé_ãðàäèåíò_4-23);}.cls-32{fill:url(#Áåçûìÿííûé_ãðàäèåíò_4-24);}.cls-33{fill:url(#Áåçûìÿííûé_ãðàäèåíò_4-25);}.cls-34{fill:url(#Áåçûìÿííûé_ãðàäèåíò_4-26);}.cls-35{fill:url(#Áåçûìÿííûé_ãðàäèåíò_4-27);}.cls-36{fill:url(#Áåçûìÿííûé_ãðàäèåíò_4-28);}.cls-37{fill:url(#Áåçûìÿííûé_ãðàäèåíò_4-29);}.cls-38{fill:url(#Áåçûìÿííûé_ãðàäèåíò_4-30);}.cls-39{fill:url(#Áåçûìÿííûé_ãðàäèåíò_4-31);}.cls-40{fill:url(#Áåçûìÿííûé_ãðàäèåíò_4-32);}.cls-41{fill:url(#Áåçûìÿííûé_ãðàäèåíò_4-33);}.cls-42{fill:url(#Áåçûìÿííûé_ãðàäèåíò_4-34);}.cls-43{fill:url(#Áåçûìÿííûé_ãðàäèåíò_4-35);}.cls-44{fill:url(#Áåçûìÿííûé_ãðàäèåíò_4-36);}.cls-45{fill:url(#Áåçûìÿííûé_ãðàäèåíò_4-37);}.cls-46{fill:url(#Áåçûìÿííûé_ãðàäèåíò_4-38);}.cls-47{fill:url(#Áåçûìÿííûé_ãðàäèåíò_4-39);}.cls-48{fill:url(#Áåçûìÿííûé_ãðàäèåíò_4-40);}.cls-49{fill:url(#Áåçûìÿííûé_ãðàäèåíò_4-41);}.cls-50{fill:url(#Áåçûìÿííûé_ãðàäèåíò_3);}.cls-51{fill:url(#Áåçûìÿííûé_ãðàäèåíò_4-42);}.cls-52{fill:url(#Áåçûìÿííûé_ãðàäèåíò_3-2);}.cls-53{fill:url(#Áåçûìÿííûé_ãðàäèåíò_4-43);}.cls-54{fill:url(#linear-gradient);}.cls-55{fill:url(#Áåçûìÿííûé_ãðàäèåíò_4-44);}.cls-56{fill:url(#Áåçûìÿííûé_ãðàäèåíò_3-3);}.cls-57{fill:url(#Áåçûìÿííûé_ãðàäèåíò_4-45);}.cls-58{fill:url(#Áåçûìÿííûé_ãðàäèåíò_3-4);}.cls-59{fill:url(#Áåçûìÿííûé_ãðàäèåíò_4-46);}.cls-60{fill:url(#Áåçûìÿííûé_ãðàäèåíò_3-5);}.cls-61{fill:url(#Áåçûìÿííûé_ãðàäèåíò_4-47);}.cls-62{fill:url(#Áåçûìÿííûé_ãðàäèåíò_3-6);}.cls-63{fill:url(#Áåçûìÿííûé_ãðàäèåíò_4-48);}.cls-64{fill:url(#Áåçûìÿííûé_ãðàäèåíò_3-7);}.cls-65{fill:url(#Áåçûìÿííûé_ãðàäèåíò_4-49);}.cls-66{fill:url(#Áåçûìÿííûé_ãðàäèåíò_3-8);}.cls-67{fill:url(#Áåçûìÿííûé_ãðàäèåíò_4-50);}.cls-68{fill:url(#Áåçûìÿííûé_ãðàäèåíò_3-9);}.cls-69{fill:url(#Áåçûìÿííûé_ãðàäèåíò_4-51);}.cls-70{fill:url(#Áåçûìÿííûé_ãðàäèåíò_3-10);}.cls-71{fill:url(#Áåçûìÿííûé_ãðàäèåíò_4-52);}.cls-72{fill:url(#Áåçûìÿííûé_ãðàäèåíò_3-11);}.cls-73{fill:url(#Áåçûìÿííûé_ãðàäèåíò_4-53);}.cls-74{fill:url(#Áåçûìÿííûé_ãðàäèåíò_3-12);}.cls-75{fill:url(#Áåçûìÿííûé_ãðàäèåíò_4-54);}.cls-76{fill:url(#Áåçûìÿííûé_ãðàäèåíò_3-13);}</style><linearGradient id="Áåçûìÿííûé_ãðàäèåíò_4" x1="161.35" y1="143.12" x2="48.2" y2="23.41" gradientUnits="userSpaceOnUse"><stop offset="0" stop-color="#020814"/><stop offset="0.1" stop-color="#060e1d"/><stop offset="0.25" stop-color="#101d34"/><stop offset="0.45" stop-color="#21375b"/><stop offset="0.67" stop-color="#395a90"/><stop offset="0.76" stop-color="#4369a7"/><stop offset="0.85" stop-color="#4b6eae"/><stop offset="1" stop-color="#627ac2"/><stop offset="1" stop-color="#627ac2"/></linearGradient><linearGradient id="Áåçûìÿííûé_ãðàäèåíò_4-2" x1="177.5" y1="117.82" x2="46.79" y2="3.76" xlink:href="#Áåçûìÿííûé_ãðàäèåíò_4"/><linearGradient id="Áåçûìÿííûé_ãðàäèåíò_4-3" x1="181.96" y1="112.71" x2="51.25" y2="-1.35" xlink:href="#Áåçûìÿííûé_ãðàäèåíò_4"/><linearGradient id="Áåçûìÿííûé_ãðàäèåíò_4-4" x1="171.22" y1="125.02" x2="40.51" y2="10.96" xlink:href="#Áåçûìÿííûé_ãðàäèåíò_4"/><linearGradient id="Áåçûìÿííûé_ãðàäèåíò_4-5" x1="156.39" y1="142.02" x2="25.68" y2="27.96" xlink:href="#Áåçûìÿííûé_ãðàäèåíò_4"/><linearGradient id="Áåçûìÿííûé_ãðàäèåíò_4-6" x1="163.87" y1="133.44" x2="33.16" y2="19.38" xlink:href="#Áåçûìÿííûé_ãðàäèåíò_4"/><linearGradient id="Áåçûìÿííûé_ãðàäèåíò_4-7" x1="130.56" y1="171.62" x2="-0.15" y2="57.56" xlink:href="#Áåçûìÿííûé_ãðàäèåíò_4"/><linearGradient id="Áåçûìÿííûé_ãðàäèåíò_4-8" x1="171.01" y1="125.27" x2="40.29" y2="11.21" xlink:href="#Áåçûìÿííûé_ãðàäèåíò_4"/><linearGradient id="Áåçûìÿííûé_ãðàäèåíò_4-9" x1="169.41" y1="127.1" x2="38.7" y2="13.04" xlink:href="#Áåçûìÿííûé_ãðàäèåíò_4"/><linearGradient id="Áåçûìÿííûé_ãðàäèåíò_4-10" x1="-558.03" y1="172.56" x2="-563.94" y2="166.31" gradientTransform="matrix(0.7, 0.72, -0.72, 0.7, 533.5, 394.96)" xlink:href="#Áåçûìÿííûé_ãðàäèåíò_4"/><linearGradient id="Áåçûìÿííûé_ãðàäèåíò_4-11" x1="13.26" y1="122.41" x2="10.15" y2="119.12" xlink:href="#Áåçûìÿííûé_ãðàäèåíò_4"/><linearGradient id="Áåçûìÿííûé_ãðàäèåíò_4-12" x1="16.82" y1="141.68" x2="11.71" y2="136.27" xlink:href="#Áåçûìÿííûé_ãðàäèåíò_4"/><linearGradient id="Áåçûìÿííûé_ãðàäèåíò_4-13" x1="34.65" y1="139.04" x2="31.67" y2="135.88" xlink:href="#Áåçûìÿííûé_ãðàäèåíò_4"/><linearGradient id="Áåçûìÿííûé_ãðàäèåíò_4-14" x1="59.1" y1="138.88" x2="55.38" y2="134.95" xlink:href="#Áåçûìÿííûé_ãðàäèåíò_4"/><linearGradient id="Áåçûìÿííûé_ãðàäèåíò_4-15" x1="-274.12" y1="121.97" x2="-280.69" y2="115.02" gradientTransform="translate(361.83 161.16) rotate(26.24)" xlink:href="#Áåçûìÿííûé_ãðàäèåíò_4"/><linearGradient id="Áåçûìÿííûé_ãðàäèåíò_4-16" x1="-389.02" y1="131.93" x2="-396.55" y2="123.96" gradientTransform="matrix(0.77, 0.64, -0.64, 0.77, 503.76, 263.53)" xlink:href="#Áåçûìÿííûé_ãðàäèåíò_4"/><linearGradient id="Áåçûìÿííûé_ãðàäèåíò_4-17" x1="131.79" y1="102.61" x2="128.08" y2="98.68" xlink:href="#Áåçûìÿííûé_ãðàäèåíò_4"/><linearGradient id="Áåçûìÿííûé_ãðàäèåíò_4-18" x1="153.1" y1="87" x2="148.98" y2="82.64" xlink:href="#Áåçûìÿííûé_ãðàäèåíò_4"/><linearGradient id="Áåçûìÿííûé_ãðàäèåíò_4-19" x1="-475.71" y1="145.14" x2="-480.34" y2="140.25" gradientTransform="matrix(0.67, 0.74, -0.74, 0.67, 560.17, 337.15)" xlink:href="#Áåçûìÿííûé_ãðàäèåíò_4"/><linearGradient id="Áåçûìÿííûé_ãðàäèåíò_4-20" x1="138.8" y1="101.31" x2="136.52" y2="98.89" xlink:href="#Áåçûìÿííûé_ãðàäèåíò_4"/><linearGradient id="Áåçûìÿííûé_ãðàäèåíò_4-21" x1="160.38" y1="79.13" x2="157.35" y2="75.92" xlink:href="#Áåçûìÿííûé_ãðàäèåíò_4"/><linearGradient id="Áåçûìÿííûé_ãðàäèåíò_4-22" x1="175.69" y1="65.36" x2="171.42" y2="60.85" xlink:href="#Áåçûìÿííûé_ãðàäèåíò_4"/><linearGradient id="Áåçûìÿííûé_ãðàäèåíò_4-23" x1="186.83" y1="53.29" x2="182.92" y2="49.15" xlink:href="#Áåçûìÿííûé_ãðàäèåíò_4"/><linearGradient id="Áåçûìÿííûé_ãðàäèåíò_4-24" x1="194" y1="42.24" x2="190.65" y2="38.69" xlink:href="#Áåçûìÿííûé_ãðàäèåíò_4"/><linearGradient id="Áåçûìÿííûé_ãðàäèåíò_4-25" x1="195.71" y1="27.9" x2="193.37" y2="25.42" xlink:href="#Áåçûìÿííûé_ãðàäèåíò_4"/><linearGradient id="Áåçûìÿííûé_ãðàäèåíò_4-26" x1="195.94" y1="19.61" x2="193.42" y2="16.94" xlink:href="#Áåçûìÿííûé_ãðàäèåíò_4"/><linearGradient id="Áåçûìÿííûé_ãðàäèåíò_4-27" x1="189.3" y1="23.16" x2="186.01" y2="19.68" xlink:href="#Áåçûìÿííûé_ãðàäèåíò_4"/><linearGradient id="Áåçûìÿííûé_ãðàäèåíò_4-28" x1="181.03" y1="24.75" x2="178.3" y2="21.87" xlink:href="#Áåçûìÿííûé_ãðàäèåíò_4"/><linearGradient id="Áåçûìÿííûé_ãðàäèåíò_4-29" x1="173.77" y1="28.06" x2="171.13" y2="25.27" xlink:href="#Áåçûìÿííûé_ãðàäèåíò_4"/><linearGradient id="Áåçûìÿííûé_ãðàäèåíò_4-30" x1="9.33" y1="129.8" x2="4.82" y2="125.04" xlink:href="#Áåçûìÿííûé_ãðàäèåíò_4"/><linearGradient id="Áåçûìÿííûé_ãðàäèåíò_4-31" x1="3.58" y1="144.23" x2="0.32" y2="140.78" xlink:href="#Áåçûìÿííûé_ãðàäèåíò_4"/><linearGradient id="Áåçûìÿííûé_ãðàäèåíò_4-32" x1="9.62" y1="150.93" x2="6.84" y2="147.98" xlink:href="#Áåçûìÿííûé_ãðàäèåíò_4"/><linearGradient id="Áåçûìÿííûé_ãðàäèåíò_4-33" x1="25.69" y1="151.49" x2="18.8" y2="144.21" xlink:href="#Áåçûìÿííûé_ãðàäèåíò_4"/><linearGradient id="Áåçûìÿííûé_ãðàäèåíò_4-34" x1="36.15" y1="146.28" x2="32.23" y2="142.13" xlink:href="#Áåçûìÿííûé_ãðàäèåíò_4"/><linearGradient id="Áåçûìÿííûé_ãðàäèåíò_4-35" x1="47.8" y1="143.41" x2="44.21" y2="139.62" xlink:href="#Áåçûìÿííûé_ãðàäèåíò_4"/><linearGradient id="Áåçûìÿííûé_ãðàäèåíò_4-36" x1="72.75" y1="134.04" x2="67.95" y2="128.96" xlink:href="#Áåçûìÿííûé_ãðàäèåíò_4"/><linearGradient id="Áåçûìÿííûé_ãðàäèåíò_4-37" x1="28.37" y1="141.78" x2="24.57" y2="137.76" xlink:href="#Áåçûìÿííûé_ãðàäèåíò_4"/><linearGradient id="Áåçûìÿííûé_ãðàäèåíò_4-38" x1="207.09" y1="36.18" x2="200.18" y2="28.87" xlink:href="#Áåçûìÿííûé_ãðàäèåíò_4"/><linearGradient id="Áåçûìÿííûé_ãðàäèåíò_4-39" x1="-445.97" y1="129.99" x2="-450.29" y2="125.42" gradientTransform="translate(580.14 312.29) rotate(50.37)" xlink:href="#Áåçûìÿííûé_ãðàäèåíò_4"/><linearGradient id="Áåçûìÿííûé_ãðàäèåíò_4-40" x1="190.79" y1="36.32" x2="186.22" y2="31.49" xlink:href="#Áåçûìÿííûé_ãðàäèåíò_4"/><linearGradient id="Áåçûìÿííûé_ãðàäèåíò_4-41" x1="154.82" y1="111.55" x2="143.81" y2="99.9" xlink:href="#Áåçûìÿííûé_ãðàäèåíò_4"/><linearGradient id="Áåçûìÿííûé_ãðàäèåíò_3" x1="148.47" y1="103.37" x2="157.47" y2="103.37" gradientUnits="userSpaceOnUse"><stop offset="0" stop-color="#020814"/><stop offset="0.2" stop-color="#040b18"/><stop offset="0.41" stop-color="#081324"/><stop offset="0.62" stop-color="#112238"/><stop offset="0.82" stop-color="#1c3655"/><stop offset="1" stop-color="#284b73"/></linearGradient><linearGradient id="Áåçûìÿííûé_ãðàäèåíò_4-42" x1="-406.36" y1="161.8" x2="-415.53" y2="152.1" gradientTransform="matrix(0.79, 0.61, -0.61, 0.79, 492.41, 270.54)" xlink:href="#Áåçûìÿííûé_ãðàäèåíò_4"/><linearGradient id="Áåçûìÿííûé_ãðàäèåíò_3-2" x1="-413.86" y1="155.85" x2="-404.24" y2="155.85" gradientTransform="matrix(0.79, 0.61, -0.61, 0.79, 492.41, 270.54)" xlink:href="#Áåçûìÿííûé_ãðàäèåíò_3"/><linearGradient id="Áåçûìÿííûé_ãðàäèåíò_4-43" x1="-450.78" y1="178.07" x2="-465.35" y2="162.66" gradientTransform="matrix(0.74, 0.68, -0.68, 0.74, 538.51, 319.2)" xlink:href="#Áåçûìÿííûé_ãðàäèåíò_4"/><linearGradient id="linear-gradient" x1="-448.33" y1="176.4" x2="-462.24" y2="161.68" gradientTransform="matrix(0.74, 0.68, -0.68, 0.74, 538.51, 319.2)" xlink:href="#Áåçûìÿííûé_ãðàäèåíò_3"/><linearGradient id="Áåçûìÿííûé_ãðàäèåíò_4-44" x1="-94.54" y1="32.9" x2="-94.71" y2="20.73" gradientTransform="translate(286.09 72.29) rotate(21.63)" xlink:href="#Áåçûìÿííûé_ãðàäèåíò_4"/><linearGradient id="Áåçûìÿííûé_ãðàäèåíò_3-3" x1="-94.54" y1="32.9" x2="-94.71" y2="20.73" gradientTransform="translate(286.09 72.29) rotate(21.63)" xlink:href="#Áåçûìÿííûé_ãðàäèåíò_3"/><linearGradient id="Áåçûìÿííûé_ãðàäèåíò_4-45" x1="-773.22" y1="588.24" x2="-773.32" y2="580.83" gradientTransform="matrix(0.18, 0.98, -0.98, 0.18, 731.15, 782.11)" xlink:href="#Áåçûìÿííûé_ãðàäèåíò_4"/><linearGradient id="Áåçûìÿííûé_ãðàäèåíò_3-4" x1="-773.22" y1="588.24" x2="-773.32" y2="580.83" gradientTransform="matrix(0.18, 0.98, -0.98, 0.18, 731.15, 782.11)" xlink:href="#Áåçûìÿííûé_ãðàäèåíò_3"/><linearGradient id="Áåçûìÿííûé_ãðàäèåíò_4-46" x1="-164.96" y1="55.37" x2="-165.2" y2="38.25" gradientTransform="matrix(0.66, 0.31, -0.41, 0.87, 258.3, 130.99)" xlink:href="#Áåçûìÿííûé_ãðàäèåíò_4"/><linearGradient id="Áåçûìÿííûé_ãðàäèåíò_3-5" x1="-164.96" y1="55.37" x2="-165.2" y2="38.25" gradientTransform="matrix(0.66, 0.31, -0.41, 0.87, 258.3, 130.99)" xlink:href="#Áåçûìÿííûé_ãðàäèåíò_3"/><linearGradient id="Áåçûìÿííûé_ãðàäèåíò_4-47" x1="100.78" y1="67.93" x2="100.55" y2="51.15" gradientTransform="translate(80.11 10.86) rotate(5.76)" xlink:href="#Áåçûìÿííûé_ãðàäèåíò_4"/><linearGradient id="Áåçûìÿííûé_ãðàäèåíò_3-6" x1="100.8" y1="69.37" x2="100.6" y2="54.7" gradientTransform="translate(80.11 10.86) rotate(5.76)" xlink:href="#Áåçûìÿííûé_ãðàäèåíò_3"/><linearGradient id="Áåçûìÿííûé_ãðàäèåíò_4-48" x1="417.16" y1="-171.04" x2="416.97" y2="-184.45" gradientTransform="matrix(0.93, -0.58, 0.29, 0.46, -246.41, 443.43)" xlink:href="#Áåçûìÿííûé_ãðàäèåíò_4"/><linearGradient id="Áåçûìÿííûé_ãðàäèåíò_3-7" x1="417.17" y1="-169.9" x2="417.01" y2="-181.61" gradientTransform="matrix(0.93, -0.58, 0.29, 0.46, -246.41, 443.43)" xlink:href="#Áåçûìÿííûé_ãðàäèåíò_3"/><linearGradient id="Áåçûìÿííûé_ãðàäèåíò_4-49" x1="2109.67" y1="27.58" x2="2109.48" y2="14.27" gradientTransform="matrix(0.24, -0.25, 0.32, 0.3, -299.85, 550.23)" xlink:href="#Áåçûìÿííûé_ãðàäèåíò_4"/><linearGradient id="Áåçûìÿííûé_ãðàäèåíò_3-8" x1="2109.68" y1="28.72" x2="2109.52" y2="17.09" gradientTransform="matrix(0.24, -0.25, 0.32, 0.3, -299.85, 550.23)" xlink:href="#Áåçûìÿííûé_ãðàäèåíò_3"/><linearGradient id="Áåçûìÿííûé_ãðàäèåíò_4-50" x1="79.73" y1="211" x2="79.64" y2="204.04" gradientTransform="matrix(0.82, -0.46, -0.1, 0.99, 66.8, -31.06)" xlink:href="#Áåçûìÿííûé_ãðàäèåíò_4"/><linearGradient id="Áåçûìÿííûé_ãðàäèåíò_3-9" x1="79.75" y1="212.13" x2="79.67" y2="206.4" gradientTransform="matrix(0.82, -0.46, -0.1, 0.99, 66.8, -31.06)" xlink:href="#Áåçûìÿííûé_ãðàäèåíò_3"/><linearGradient id="Áåçûìÿííûé_ãðàäèåíò_4-51" x1="158.95" y1="133.13" x2="158.89" y2="129.07" gradientTransform="matrix(0.82, -0.46, -0.1, 0.99, 66.8, -31.06)" xlink:href="#Áåçûìÿííûé_ãðàäèåíò_4"/><linearGradient id="Áåçûìÿííûé_ãðàäèåíò_3-10" x1="158.95" y1="133.79" x2="158.91" y2="130.44" gradientTransform="matrix(0.82, -0.46, -0.1, 0.99, 66.8, -31.06)" xlink:href="#Áåçûìÿííûé_ãðàäèåíò_3"/><linearGradient id="Áåçûìÿííûé_ãðàäèåíò_4-52" x1="107.72" y1="120.69" x2="101.71" y2="114.34" xlink:href="#Áåçûìÿííûé_ãðàäèåíò_4"/><linearGradient id="Áåçûìÿííûé_ãðàäèåíò_3-11" x1="108.73" y1="122.29" x2="103.63" y2="116.89" xlink:href="#Áåçûìÿííûé_ãðàäèåíò_3"/><linearGradient id="Áåçûìÿííûé_ãðàäèåíò_4-53" x1="-652.7" y1="326.38" x2="-655.97" y2="322.92" gradientTransform="translate(665.62 512.84) rotate(55.99)" xlink:href="#Áåçûìÿííûé_ãðàäèåíò_4"/><linearGradient id="Áåçûìÿííûé_ãðàäèåíò_3-12" x1="-652.15" y1="327.25" x2="-654.93" y2="324.31" gradientTransform="translate(665.62 512.84) rotate(55.99)" xlink:href="#Áåçûìÿííûé_ãðàäèåíò_3"/><linearGradient id="Áåçûìÿííûé_ãðàäèåíò_4-54" x1="-316.92" y1="-84" x2="-320.89" y2="-88.2" gradientTransform="matrix(1.14, -0.13, -0.55, 0.84, 477.89, 124.86)" xlink:href="#Áåçûìÿííûé_ãðàäèåíò_4"/><linearGradient id="Áåçûìÿííûé_ãðàäèåíò_3-13" x1="-316.2" y1="-82.88" x2="-319.59" y2="-86.46" gradientTransform="matrix(1.14, -0.13, -0.55, 0.84, 477.89, 124.86)" xlink:href="#Áåçûìÿííûé_ãðàäèåíò_3"/></defs><title>Asset 1</title><g id="Layer_2" data-name="Layer 2"><g id="Planets"><path class="cls-1" d="M21.62,89.43A66.21,66.21,0,0,1,25.24,102a83.26,83.26,0,0,1,1.59,10.41s5.31,5.78,7.24,2.06S26,78.08,21.62,89.43Z"/><path class="cls-2" d="M186.67,83.49s-4.75,4.54-5.44,13.6.67,13.34.67,13.34-3.16,2.22-7-1.92-1.39-17.61,3-23.23S186.18,80.56,186.67,83.49Z"/><path class="cls-1" d="M128.29,3.64s10.07,6.35,16,7.83a25.4,25.4,0,0,1,10.28,5.77s1.49,6-5,6.81S122.84,12,128.29,3.64Z"/><path class="cls-3" d="M186.15,73.26a41.51,41.51,0,0,0-2-9.72c-1.17-3.16-1.48-6.19-3.52-9-1.18-1.66-2.66-3.11-3.68-4.87-1.4-2.44-1.84-5.29-2.5-8-1.21-5.08-4.57-9.2-7.93-13.08a84.09,84.09,0,0,0-5.94-6.15c-.69-.66-6.1-4.51-6-5.14a2.07,2.07,0,0,1-.25.82c-1.45,2.51-8.4,1.21-15.52-2.9-.4-.23-.78-.46-1.16-.7l0,0c-6.06-3.76-10-8.33-9.32-10.84a79.82,79.82,0,0,0-8.36-2.1l-.23.06h0a5.73,5.73,0,0,1-.64.1l-.26,0-.44,0h-.75l-.38,0h-.05l-.69-.06A7.75,7.75,0,0,1,112.82.47,82.81,82.81,0,0,0,74.71,5.34c-6.34,2.4-11.77,6.31-17.56,9.81a26,26,0,0,0-4.66,3.3,35.66,35.66,0,0,0-4.31,5.66,47.88,47.88,0,0,1-8,8.86c-1.28,1.1-2.62,2.14-3.84,3.3C30,42.3,27,51.43,24.61,59.61a82.78,82.78,0,0,0-3,29.82,2.23,2.23,0,0,1,1.3-1.06c2.43-.57,5.69,4.45,7.28,11.22.14.6.25,1.2.36,1.78l.06.34c.1.59.18,1.17.25,1.73v.06c.07.59.11,1.17.14,1.73v0c0,.57,0,1.12,0,1.65a15.4,15.4,0,0,1-.33,2.94s0,0,0,.08c-.05.2-.1.39-.16.57a.65.65,0,0,1,0,.13c0,.16-.11.32-.17.47a1,1,0,0,1-.07.15c-.06.13-.12.26-.18.37a1.74,1.74,0,0,1-.11.18c-.06.09-.12.19-.18.27a1.37,1.37,0,0,1-.16.18c-.06.06-.11.13-.17.18a1.7,1.7,0,0,1-.23.17l-.15.1a1.52,1.52,0,0,1-.42.16,2.25,2.25,0,0,1-1.82-.48,75.3,75.3,0,0,0,12.51,21.39c5,6,10.52,12,17.82,15.19,3.29,1.43,6.83,2.24,10.07,3.76,5.09,2.39,9.28,6.46,14.46,8.64,6.59,2.76,14,2.2,21,3.55a40.36,40.36,0,0,0,5.85,1,24.12,24.12,0,0,0,5.79-.68c19.17-4,37.07-12,50.48-26.57a83.26,83.26,0,0,0,10-13.34,80.14,80.14,0,0,0,3.89-7.25c.37-.78,2.73-7.59,3.17-7.63a4.84,4.84,0,0,1-1.37,0,5,5,0,0,1-.76-.21l-.26-.11a3.88,3.88,0,0,1-.46-.22,2.49,2.49,0,0,1-.3-.19l-.38-.25-.3-.27-.32-.29-.29-.34c-.09-.1-.19-.21-.28-.33l-.28-.39c-.08-.12-.16-.24-.23-.37s-.18-.3-.26-.45-.14-.26-.2-.4-.16-.33-.23-.5-.08-.17-.11-.26l0,.05a19.72,19.72,0,0,1-.78-10.52c1.32-7.56,5.89-13.07,10.2-12.32a4.69,4.69,0,0,1,1.35.46A82.2,82.2,0,0,0,186.15,73.26Z"/><path class="cls-4" d="M59.73,43.8c11-6.12,21.89-12.33,33.14-17.89C98.4,23.18,104,20.6,109.7,18.27c4.67-1.91,9.32-3.84,13.28-7,2.08-1.67,4.37-4.12,5.25-6.85a2.67,2.67,0,0,1,.06-.76c-1.5-.46-3-.87-4.54-1.25a20.53,20.53,0,0,1-3.91,3.2c-4.46,3.17-9.72,5-14.79,6.94-6,2.27-11.9,4.71-17.71,7.4-11.77,5.46-23.12,11.7-34.48,18-6,3.33-12.11,6.63-18.46,9.34A44.31,44.31,0,0,1,28,49.46c-.92,2.31-1.72,4.67-2.44,7,.48,0,.95,0,1.43,0C39.18,55.84,49.34,49.59,59.73,43.8Z"/><path class="cls-5" d="M94.9.5l-.31,0Q90.51,1,86.5,1.87a.3.3,0,0,0-.08,0c-11,4.64-21.14,11.29-31.05,18-2.74,1.85-5.46,3.77-8.22,5.62-.88,1.17-1.81,2.31-2.79,3.4,5.75-3.48,11.14-7.84,16.4-11.3C71.37,10.63,82.73,4.29,94.9.5Z"/><path class="cls-6" d="M107.33,44.88c15-7,30.08-13.81,42.45-25.1l.49-.48a26.2,26.2,0,0,1-9.33-3,155.6,155.6,0,0,1-16.18,11.55c-14.85,9.54-30.55,17.7-46.11,26C62.38,62.56,46,72.59,28.31,78c-2.28.69-4.58,1.27-6.9,1.76,0,.64-.05,1.29-.06,1.94,11.2-1.51,22.12-5.38,32.48-10C72.08,63.68,89.28,53.35,107.33,44.88Z"/><path class="cls-7" d="M79.09,133.38a92.47,92.47,0,0,1,14.22.06c4.81.47,9.57,1.28,14.42,1.29a63.5,63.5,0,0,0,26.05-5.52,225.29,225.29,0,0,0,22.65-12.31c6.75-4.05,13.18-9,17.17-15.94.41-.71.8-1.43,1.18-2.14a23.28,23.28,0,0,1,.34-3.47c1.15-6.58,4.76-11.61,8.52-12.3a33.26,33.26,0,0,1,2.78-3.21l.19-.19c-.07-2.12-.21-4.25-.46-6.39v0a82.66,82.66,0,0,0-7.8,8c-5.34,6.86-7.5,15.49-14.48,21.12-6.69,5.39-15.36,8.88-23.09,12.51-8.17,3.83-16.84,7.59-25.66,9.61-9.54,2.19-19.3.47-28.95,1.73S66.67,129.7,57,131.53c-4.79.91-9.6,1.67-14.4,2.48l-2.67.46c.77.91,1.55,1.82,2.34,2.72,2.69-.34,5.44-.5,8-.82C59.82,135.19,69.48,133.93,79.09,133.38Z"/><path class="cls-8" d="M64.21,117.85a51,51,0,0,0,12.61-2.95c4.36-1.51,8.05,0,12.48.37a55.39,55.39,0,0,0,14.25-.84c9-1.59,17.48-5.35,25.44-9.64S145.27,96,152,90.16c7.09-6.12,9.48-15.3,13.27-23.52a211,211,0,0,1,10.43-19.8c-.55-1.7-.88-3.49-1.3-5.23a19,19,0,0,0-1.16-3.36l-.7.92a211.16,211.16,0,0,0-14.94,23c-4.08,7.27-6.81,15.73-14,20.58a202.55,202.55,0,0,1-21.9,13c-7.15,3.63-14.88,6.73-22.91,7.65-8.88,1-17.48-1.91-25.54,3.26-3.52,2.26-6.29,4.13-10.5,4.85-4.89.83-9.79,1.55-14.69,2.32-6.47,1-12.94,2.08-19.41,3.1.55,1.19,1.11,2.37,1.72,3.52l19.61-1.47C54.77,118.57,59.5,118.28,64.21,117.85Z"/><path class="cls-9" d="M88.05,150a95.88,95.88,0,0,1,14.83,1.65,38.8,38.8,0,0,0,13.92.47c9.21-1.59,18.28-5.24,27.14-8.14,2.1-.69,1.23-4-.93-3.34-4.57,1.31-9.15,2.61-13.69,4s-8.94,3-13.55,3.74c-9.73,1.62-19.24-3-28.91-3.59a75.52,75.52,0,0,0-13.11.31,30.34,30.34,0,0,1-5.77.45c-2.56-.19-5.23-.31-7.8-.24a42.22,42.22,0,0,0-7.57,1.18A31.21,31.21,0,0,0,57.16,149c3.29,1.43,6.83,2.24,10.07,3.76l.5.26a21,21,0,0,1,4.44-1.77A60.84,60.84,0,0,1,88.05,150Z"/><path class="cls-10" d="M68.15,88.66c4.21-.55,8.59-1,12.64-2.32A89.72,89.72,0,0,0,94.5,80.16c8.12-4.29,15.69-9.54,23.4-14.51,8-5.2,16.24-10.22,24.07-15.74a118.48,118.48,0,0,0,19.81-18c1.21-1.34,2.53-2.79,3.87-4.33-1-1.09-2-2.15-3-3.18a90.34,90.34,0,0,1-12.91,11.79c-7.74,5.81-16.5,10-25,14.55L97.82,65.07c-8.48,4.5-16.35,9.6-25.27,13.29a226.28,226.28,0,0,1-28.16,9.17A93.26,93.26,0,0,1,30,90.44c-1.17.12-2.33.19-3.49.23a19.18,19.18,0,0,1,2.09,3.84,110,110,0,0,0,11.31-1.19C49.34,91.93,58.65,89.91,68.15,88.66Z"/><path class="cls-11" d="M163,126c-4.22,3.63-8.79,6.79-13,10.47-.87.77.24,1.89,1.15,1.49,7.66-3.34,14.22-9.31,20.34-14.88,2.78-2.53,5.5-5.11,8.2-7.72.83-2.2,1.87-4.94,2.15-5a4.84,4.84,0,0,1-1.37,0,5,5,0,0,1-.76-.21l-.26-.11a3.88,3.88,0,0,1-.46-.22l-.07,0c-1.42,1.65-2.85,3.28-4.31,4.89A135.3,135.3,0,0,1,163,126Z"/><circle class="cls-1" cx="126.47" cy="51.14" r="11.47"/><path class="cls-12" d="M126.32,39.67h-.24A11,11,0,1,1,115,50.89c0,.08,0,.16,0,.25a11.33,11.33,0,1,0,11.32-11.47Z"/><ellipse class="cls-13" cx="138.84" cy="86.88" rx="5.95" ry="5.06" transform="translate(27.85 207.32) rotate(-79.37)"/><path class="cls-14" d="M139.94,81h-.11c2.56.55,4.17,3.41,3.6,6.46s-3.18,5.19-5.8,4.7-4.24-3.32-3.73-6.36l0,.13c-.61,3.23,1.13,6.26,3.88,6.78s5.46-1.69,6.06-4.92S142.69,81.55,139.94,81Z"/><ellipse class="cls-1" cx="57.55" cy="120.55" rx="8.52" ry="9.62" transform="translate(-51.24 43.03) rotate(-29.01)"/><path class="cls-1" d="M52.88,112.13l-.15.1c3.91-2,9-.21,11.42,4.18s1.27,9.81-2.67,12-9,.39-11.48-3.92l.09.19c2.58,4.64,8,6.56,12.12,4.28s5.37-7.9,2.79-12.55S57,109.85,52.88,112.13Z"/><path class="cls-15" d="M48.16,52.31C46,56.19,41.9,58,39,56.39s-3.58-6.09-1.44-10,6.27-5.71,9.2-4.08S50.31,48.43,48.16,52.31Z"/><path class="cls-16" d="M46.72,42.35l-.11-.06c2.71,1.61,3.28,5.8,1.26,9.46s-6,5.46-8.81,3.91-3.4-5.71-1.45-9.38c0,0-.06.09-.09.15-2.14,3.87-1.5,8.33,1.44,10s7.06-.2,9.2-4.08S49.66,44,46.72,42.35Z"/><ellipse class="cls-2" cx="114" cy="143.31" rx="19.33" ry="14.2" transform="translate(-20.87 19.44) rotate(-8.93)"/><path class="cls-2" d="M133.09,140.3c0-.27-.1-.54-.16-.8.59,7.46-6.81,14.62-17,16.22s-19.41-2.94-21.14-10.23c0,.27,0,.55.09.82,1.22,7.75,10.76,12.69,21.3,11S134.31,148.05,133.09,140.3Z"/><circle class="cls-1" cx="74.43" cy="83.76" r="13.32"/><path class="cls-12" d="M82.9,73.48A13.32,13.32,0,0,1,65.16,93.33,13.32,13.32,0,1,0,82.9,73.48Z"/><path class="cls-2" d="M160.34,124.67c-1.56,3.18-4.88,4.73-7.42,3.49s-3.34-4.84-1.78-8,4.89-4.73,7.43-3.48S161.9,121.5,160.34,124.67Z"/><path class="cls-2" d="M160.34,124c-1.56,3.17-4.88,4.73-7.42,3.48a4.92,4.92,0,0,1-2.56-4.35,5.1,5.1,0,0,0,2.56,5c2.54,1.24,5.86-.31,7.42-3.49a7.41,7.41,0,0,0,.79-3.65A7.61,7.61,0,0,1,160.34,124Z"/><path class="cls-12" d="M98.27,16.34c4,6.87-.7,17-10.43,22.6S67,43.54,63.06,36.67s.7-17,10.42-22.61S94.3,9.47,98.27,16.34Z"/><path class="cls-17" d="M98.27,16.34c-2.31-4-7-6-12.51-5.88,5,.13,9.33,2.13,11.5,5.88,4,6.87-.7,17-10.43,22.6a26,26,0,0,1-12.27,3.61,25.6,25.6,0,0,0,13.28-3.61C97.57,33.33,102.24,23.21,98.27,16.34Z"/><circle class="cls-1" cx="93.54" cy="100.82" r="3.81"/><path class="cls-12" d="M95.86,97.8a3.81,3.81,0,0,1-3,6.19,3.74,3.74,0,0,1-2.32-.79,3.8,3.8,0,1,0,5.28-5.4Z"/><path class="cls-18" d="M21,108.65a11.58,11.58,0,0,1-2,1.92l-.54.41c0,.21.07.43.11.64s.06.35.08.52l.58.42c.23.17.46.34.69.53.43-.19.87-.37,1.28-.6C22.88,111.52,22.25,109.72,21,108.65Z"/><path class="cls-19" d="M9.81,119.87a3.07,3.07,0,0,0,0,1.13,1.37,1.37,0,0,0,.07.29c1.2.72,2.34,1.37,3.69.8-.2-.83-.45-1.66-.65-2.49a22.55,22.55,0,0,1-2.47-.75A1.6,1.6,0,0,0,9.81,119.87Z"/><path class="cls-20" d="M10.93,137.36c-.49.65-.25,1.19.06,2a12.16,12.16,0,0,0,1.62,2.9c.15.2.29.41.44.59a3.75,3.75,0,0,0,2.12-.09,8.24,8.24,0,0,0,1-1.43c1.18-2,.66-4.11-.45-5.91a3.2,3.2,0,0,0-.42-.1,20.09,20.09,0,0,0-2.21.79A6.53,6.53,0,0,0,10.93,137.36Z"/><path class="cls-21" d="M33.16,135.31a2.15,2.15,0,0,0,0,4.3A2.15,2.15,0,0,0,33.16,135.31Z"/><path class="cls-22" d="M55.55,137.81a2,2,0,0,0,2.47.86,2.17,2.17,0,0,0,.48-3.14,2.92,2.92,0,0,0-1.33-.92,4.69,4.69,0,0,0-1.12-.07,2,2,0,0,0-.25.14A2.45,2.45,0,0,0,55.55,137.81Z"/><path class="cls-23" d="M57.24,144.87c.25,1.58,1.43,3.44,3.25,3.29a3.84,3.84,0,0,0,3.21-4.6,5.11,5.11,0,0,0-1.4-2.5,9.07,9.07,0,0,0-1.71-1l-.51,0A4.35,4.35,0,0,0,57.24,144.87Z"/><path class="cls-24" d="M122.69,105.91c-1.61.51-3.47.39-5.11.67l-.49.09a6,6,0,0,1-.23,2.19c-.22.79-.53,1.55-.68,2.36a19.92,19.92,0,0,1-.37,2.42,1.56,1.56,0,0,1-.21.43,5.36,5.36,0,0,1,.26.77,7.25,7.25,0,0,0,2.32,1,7,7,0,0,0,3.4-.23A6.17,6.17,0,0,0,123,115a5.76,5.76,0,0,0,.73-.45,19.92,19.92,0,0,1,.38-2.52,21.89,21.89,0,0,1,.67-2.71A13.84,13.84,0,0,0,122.69,105.91Z"/><path class="cls-25" d="M131.3,98.31a2.56,2.56,0,0,0-2.74,0,2.71,2.71,0,1,0,3.85,3.39A2.71,2.71,0,0,0,131.3,98.31Z"/><path class="cls-26" d="M152.23,84c-1.16,0-2.32,0-3.47-.11a23.12,23.12,0,0,0,.69,2.41,8.67,8.67,0,0,0,.8,1.79c.42-.34.83-.67,1.21-1a36.67,36.67,0,0,0,2.65-2.64,3,3,0,0,0-.09-.51A11.51,11.51,0,0,1,152.23,84Z"/><path class="cls-27" d="M135,75.68c-.93-.25-1.83-.54-2.73-.86a2.78,2.78,0,0,0-.9.58l-.12.14q0,.34,0,.69a16.76,16.76,0,0,0,.48,2.67l.63-.21c1.53-.51,3-1,4.55-1.53a3.15,3.15,0,0,0-.39-1C136,76,135.45,75.81,135,75.68Z"/><path class="cls-28" d="M137.66,98.44a1.66,1.66,0,0,0,0,3.32A1.66,1.66,0,0,0,137.66,98.44Z"/><path class="cls-29" d="M158.87,75.16c-2.56,0-2.56,4.73,0,4.73S161.43,75.16,158.87,75.16Z"/><path class="cls-30" d="M173.55,60c-4,0-4,6.21,0,6.21S177.55,60,173.55,60Z"/><path class="cls-31" d="M182.82,49.4a6.65,6.65,0,0,0,1.36,3.78,2.17,2.17,0,0,0,2.73-.39c.83-1-.14-2-.72-2.68s-1.15-1.24-1.63-1.94A2.51,2.51,0,0,0,182.82,49.4Z"/><path class="cls-32" d="M192.33,38c-3.13,0-3.14,4.87,0,4.87S195.46,38,192.33,38Z"/><path class="cls-33" d="M196.15,27a1.64,1.64,0,0,0-1.61-2,1.7,1.7,0,0,0,0,3.4,1.66,1.66,0,0,0,.89-.25A1.49,1.49,0,0,1,196.15,27Z"/><path class="cls-34" d="M194.68,16.45a1.83,1.83,0,0,0,0,3.65A1.83,1.83,0,0,0,194.68,16.45Z"/><path class="cls-35" d="M189.31,20.36c-.48-.17-.61-.54-1-.75s-.74,0-1.08,0l-.61.06a6.77,6.77,0,0,0-.67,1.13,1.43,1.43,0,0,0-.08,1c.22,1,1,1.56,1.71,2.26A2.4,2.4,0,0,0,189.31,20.36Z"/><path class="cls-36" d="M180.6,21.62l-.09,0a4.5,4.5,0,0,0-1.08.33c-.17.11-.15.16-.29.3a4.05,4.05,0,0,1-.67.55c.1.75.12,1.56.28,2.29a2,2,0,0,0,.88.2C181.79,25.33,182.11,22.48,180.6,21.62Z"/><path class="cls-37" d="M172.45,24.75c-2.46,0-2.47,3.83,0,3.83A1.92,1.92,0,0,0,172.45,24.75Z"/><path class="cls-38" d="M9.51,126a3.79,3.79,0,0,0-1.07-1.22,3.61,3.61,0,0,1-2.6.25c-.19.37-.39.73-.58,1.07a11.87,11.87,0,0,0-.91,2.16,3,3,0,0,0,3,2.2,3.31,3.31,0,0,0,1.22-.23C9.54,128.86,10.06,127,9.51,126Z"/><path class="cls-39" d="M4.1,142.83a4.1,4.1,0,0,0-1.88-2.54,2.45,2.45,0,0,0-.39,0A2.18,2.18,0,0,0,.09,141a3,3,0,0,0,1.07,3.24,2.48,2.48,0,0,0,2.16.19A2.41,2.41,0,0,0,4.1,142.83Z"/><path class="cls-40" d="M9.25,151.11A2.84,2.84,0,0,0,9.41,149a9.7,9.7,0,0,0-.93-1.82h0c-2.61,0-2.61,4.05,0,4.05A2,2,0,0,0,9.25,151.11Z"/><path class="cls-41" d="M23.44,146.36a29.38,29.38,0,0,1-4.62-.83,4.38,4.38,0,0,0-.86,2.88.78.78,0,0,1,.05.18v-.08l.06.16a5.43,5.43,0,0,0,.17.53c.8,1.53,3.35,1.72,4.82,1.53,1.8-.24,3.69-1.26,3.6-3.33a2.29,2.29,0,0,0-.19-.8A14.82,14.82,0,0,1,23.44,146.36Z"/><path class="cls-42" d="M36.63,142.48A2.29,2.29,0,0,0,35.35,141a2.18,2.18,0,0,0-2,.12,4.87,4.87,0,0,0-2,2.86,2.69,2.69,0,0,0,1.86,3.28,2.73,2.73,0,0,0,3.29-1.86A4.43,4.43,0,0,0,36.63,142.48Z"/><path class="cls-43" d="M46,138.91c-3.35,0-3.36,5.21,0,5.21S49.36,138.91,46,138.91Z"/><path class="cls-44" d="M68.59,133.39c1.38.11,3.44-1.93,3.88-3.08.17-.45.14-.48-.07-.6a3.47,3.47,0,0,0-1.76-.33,8.42,8.42,0,0,0-2.29.36l-.11,0a7.64,7.64,0,0,1-.18,2.18C67.94,132.56,67.88,133.33,68.59,133.39Z"/><path class="cls-45" d="M24.27,139.76a3.4,3.4,0,0,0,2.36,1.54c1.3.11,1.57-1.25,1.13-2.26-.35-.78-1.07-1.68-2-1.64a2.82,2.82,0,0,0-1.4.58l-.19.19A1.49,1.49,0,0,0,24.27,139.76Z"/><path class="cls-46" d="M203.9,29.88a11.09,11.09,0,0,1-1.06-.65c-.86.46-1.73.91-2.6,1.33a5.5,5.5,0,0,0,.68,3c.55,1,1.36,1,2.44,1,.53,0,1.1,0,1.67,0,.28-.3.56-.59.83-.89s.46-.57.71-.89c-.22-.68-.44-1.35-.68-2A10.25,10.25,0,0,1,203.9,29.88Z"/><path class="cls-47" d="M193.08,48.69a15.51,15.51,0,0,1,3.16,2.48c.37-.19.74-.37,1.12-.54A19.86,19.86,0,0,1,199,47.38a3.08,3.08,0,0,0-3.3-1.83,3.39,3.39,0,0,0-1.81,1A2.94,2.94,0,0,0,193.08,48.69Z"/><path class="cls-48" d="M186.52,32.3c-.05.37-.1.73-.17,1.08-.12.64-.49,1.74.08,2.27.33.3,1,.25,1.41.24.73,0,1.47,0,2.19-.06a2.8,2.8,0,0,0,1.87-1.18c0-.07,0-.13.07-.19l-.37-.52c-.48-.71-1.3-2.52-2.23-2.8-.68-.2-2,.74-2.55,1Z"/><path class="cls-49" d="M148.47,96.2l-5.18,4.56-.59,6.87,9.52,2.91s3.66-3.36,4.17-4.92S148.47,96.2,148.47,96.2Z"/><polygon class="cls-50" points="148.47 96.2 149.56 104.25 152.22 110.54 157.47 105.99 157.47 103.37 148.47 96.2"/><path class="cls-51" d="M72.55,137.33l-4.26,3-1.23,3.8,3.62,4.39s3.45-.13,4.56-.87C76.52,146.85,72.55,137.33,72.55,137.33Z"/><polygon class="cls-52" points="72.55 137.33 70.76 144.08 70.68 148.57 76.07 148.53 77.55 146.6 72.55 137.33"/><polygon class="cls-53" points="95.47 125.68 89.55 124.36 82.19 126.52 76.3 133.96 81.67 142 91.58 141.75 95.47 125.68"/><polygon class="cls-54" points="95.47 125.68 88.11 131.88 81.52 134.64 81.67 142 91.94 142.47 96.2 131.63 95.47 125.68"/><polygon class="cls-55" points="192.11 57.51 187.48 58.58 183.36 63.17 186.26 66.04 191.97 64.56 192.11 57.51"/><polygon class="cls-56" points="192.11 57.51 190.46 62.24 187.14 61.51 183.36 63.17 186.26 66.04 191.97 64.56 192.11 57.51"/><polygon class="cls-57" points="20.04 127.83 18 125.78 14.29 125.14 13.74 127.57 16.35 130.04 20.04 127.83"/><polygon class="cls-58" points="20.04 127.83 17.07 128.51 16.37 126.56 14.29 125.14 13.74 127.57 16.35 130.04 20.04 127.83"/><polygon class="cls-59" points="135.39 114.07 130.21 115.66 124.91 121.79 127.48 125.38 133.89 123.21 135.39 114.07"/><polygon class="cls-60" points="135.39 114.07 132.71 120.26 129.29 119.47 124.91 121.79 127.48 125.38 133.89 123.21 135.39 114.07"/><polygon class="cls-61" points="174.56 72.08 169.2 74.96 167.1 79.32 173.94 85.94 180.42 82.86 181.92 76.25 174.56 72.08"/><polygon class="cls-62" points="181.92 76.25 177.12 79.75 167.1 79.32 172.8 86.6 176.17 87.91 180.59 84.29 181.92 76.25"/><polygon class="cls-63" points="87.59 117.01 84.63 120.6 84.45 123.03 91.34 121.74 95.04 117.53 94.11 114.67 87.59 117.01"/><polygon class="cls-64" points="94.11 114.67 91.74 118.18 84.45 123.03 90.72 122.52 93.53 121.25 95.6 117.9 94.11 114.67"/><polygon class="cls-65" points="201.13 19.71 201.06 21.54 201.92 22.96 204.83 22.87 205.02 20.75 203.45 18.97 201.13 19.71"/><polygon class="cls-66" points="203.45 18.97 203.64 20.81 201.92 22.96 204.83 23.27 205.73 22.8 205.44 21.02 203.45 18.97"/><polygon class="cls-67" points="110.83 135.78 109.18 137.73 108.69 139.34 110.75 141.21 113.67 139.46 114.53 135.82 110.83 135.78"/><polygon class="cls-68" points="114.53 135.82 111.95 138.47 108.69 139.34 110.36 141.48 111.63 141.94 113.79 140.14 114.53 135.82"/><polygon class="cls-69" points="183.96 24.19 183 25.33 182.72 26.27 183.92 27.36 185.62 26.34 186.13 24.21 183.96 24.19"/><polygon class="cls-70" points="186.13 24.21 184.62 25.76 182.72 26.27 183.69 27.52 184.43 27.79 185.69 26.74 186.13 24.21"/><path class="cls-71" d="M103.61,121.83l.67-.42c1.33-.9,2.71-1.71,4.1-2.51a.8.8,0,0,1,.51-.09,3.18,3.18,0,0,0,.14-1c-.27-.94-.49-1.9-.79-2.83l-.07-.09a4.68,4.68,0,0,0-2.38-1.52l-1.17-.16a3.2,3.2,0,0,0-.93.1.44.44,0,0,1-.19.16,10,10,0,0,0-3,2.45l0,.11a18.41,18.41,0,0,0,.82,3.37,6.64,6.64,0,0,0,1,2A4.24,4.24,0,0,0,103.61,121.83Z"/><polygon class="cls-72" points="108.17 114.87 106.08 117.8 101.31 119.38 102.28 122.29 106.08 124.13 109.04 120.82 109.5 116.36 108.17 114.87"/><path class="cls-73" d="M28.22,152.79c.14.06.28.13.4.17.81.33,1.6.7,2.38,1.09a.43.43,0,0,1,.2.2,1.54,1.54,0,0,0,.5-.24c.34-.41.71-.8,1-1.22l0-.06a2.53,2.53,0,0,0-.05-1.54l-.28-.58a1.55,1.55,0,0,0-.33-.39.24.24,0,0,1-.13,0,5.63,5.63,0,0,0-2-.6l-.06,0a10.5,10.5,0,0,0-1.27,1.4,3.71,3.71,0,0,0-.57,1.07A2.34,2.34,0,0,0,28.22,152.79Z"/><polygon class="cls-74" points="32.77 152.73 30.8 152.67 28.63 151 27.61 152.32 27.94 154.6 30.34 154.93 32.49 153.78 32.77 152.73"/><path class="cls-75" d="M158.12,95.64c.24-.1.47-.2.67-.3,1.35-.63,2.7-1.23,4.06-1.81a1.14,1.14,0,0,1,.42-.1,3.19,3.19,0,0,0,.49-.59c.13-.51.32-1,.44-1.54,0,0,0,0,0,0-.18-.42-.65-.53-1.25-.64l-.84,0a4.27,4.27,0,0,0-.75.14.75.75,0,0,1-.2.11A19.32,19.32,0,0,0,158,92.56l-.07.06a9.06,9.06,0,0,0-.62,1.84,1.77,1.77,0,0,0,.07,1A2.2,2.2,0,0,0,158.12,95.64Z"/><polygon class="cls-76" points="164.18 91.26 161.5 93.12 157.27 94.46 156.94 96.03 159.16 96.72 162.64 94.56 164.64 91.99 164.18 91.26"/></g></g></svg>