<svg xmlns="http://www.w3.org/2000/svg" xmlns:xlink="http://www.w3.org/1999/xlink" viewBox="0 0 188 188"><defs><style>.cls-1{fill:url(#linear-gradient);}.cls-2{fill:url(#linear-gradient-2);}.cls-3{fill:url(#linear-gradient-3);}.cls-4{fill:url(#linear-gradient-4);}.cls-5{fill:url(#linear-gradient-5);}.cls-6{fill:url(#linear-gradient-6);}.cls-7{fill:url(#linear-gradient-7);}.cls-8{fill:url(#linear-gradient-8);}.cls-9{fill:url(#linear-gradient-9);}.cls-10{fill:url(#linear-gradient-10);}.cls-11{fill:url(#linear-gradient-11);}.cls-12{fill:url(#linear-gradient-12);}</style><linearGradient id="linear-gradient" x1="32.37" y1="148.77" x2="171.87" y2="24.79" gradientUnits="userSpaceOnUse"><stop offset="0" stop-color="#020a19"/><stop offset="0.12" stop-color="#040e1e"/><stop offset="0.26" stop-color="#08182d"/><stop offset="0.41" stop-color="#0f2945"/><stop offset="0.57" stop-color="#1a4066"/><stop offset="0.63" stop-color="#1e4a74"/><stop offset="0.7" stop-color="#204d78"/><stop offset="0.78" stop-color="#265685"/><stop offset="0.82" stop-color="#2a5d8f"/><stop offset="1" stop-color="#647cc4"/></linearGradient><linearGradient id="linear-gradient-2" x1="-4.54" y1="66.67" x2="129.46" y2="-22.33" xlink:href="#linear-gradient"/><linearGradient id="linear-gradient-3" x1="2.32" y1="77" x2="136.32" y2="-12" xlink:href="#linear-gradient"/><linearGradient id="linear-gradient-4" x1="9.84" y1="88.32" x2="143.84" y2="-0.68" xlink:href="#linear-gradient"/><linearGradient id="linear-gradient-5" x1="16.65" y1="98.58" x2="150.74" y2="9.52" xlink:href="#linear-gradient"/><linearGradient id="linear-gradient-6" x1="44.98" y1="141.23" x2="178.98" y2="52.23" xlink:href="#linear-gradient"/><linearGradient id="linear-gradient-7" x1="53.67" y1="154.31" x2="187.67" y2="65.31" xlink:href="#linear-gradient"/><linearGradient id="linear-gradient-8" x1="69.41" y1="178.01" x2="203.41" y2="89.01" xlink:href="#linear-gradient"/><linearGradient id="linear-gradient-9" x1="34.55" y1="125.52" x2="168.55" y2="36.52" xlink:href="#linear-gradient"/><linearGradient id="linear-gradient-10" x1="25.84" y1="112.41" x2="159.84" y2="23.41" xlink:href="#linear-gradient"/><linearGradient id="linear-gradient-11" x1="64.58" y1="170.73" x2="198.58" y2="81.73" xlink:href="#linear-gradient"/><linearGradient id="linear-gradient-12" x1="72.75" y1="183.04" x2="206.75" y2="94.04" xlink:href="#linear-gradient"/></defs><title>Asset 1</title><g id="Layer_2" data-name="Layer 2"><g id="Ñëîé_1" data-name="Ñëîé 1"><circle class="cls-1" cx="94" cy="94" r="94"/><path class="cls-2" d="M107.45,2.88c-.5,1.53-3.25,3.4-4.45,4.48-2.88,2.62-5.75,5.24-8.71,7.77C82.08,25.56,68.23,35.21,52.07,37.94c-3.86.66-8.58,1.32-12.46.33-3.6-.93-5.41-5.38-4.36-8.7.82-2.6,3.23-4.93,5.12-6.82A51.14,51.14,0,0,1,65,9.21c.76-.17,1.53-.32,2.29-.45C70,8.31,70.6,7.83,72.57,9.9c1.69,1.79,1.82,1.84.58,3.81a18.07,18.07,0,0,1-2.75,3.05,32.68,32.68,0,0,1-5.92,4.48c-2.25,1.34-8.35,5-11.19,4.14l-.94-1.12c-1.42-1-1.22-1.62.58-2a16.55,16.55,0,0,1,3-1.79c2-1.2,4-2.41,5.94-3.75a.4.4,0,0,0-.4-.69c-1.07.54-18.68,9.23-10.53,10.82,3.67.71,9-1.87,12.13-3.44,4-2,8.76-5.13,11.18-9,1.08-1.74,2.12-4.48.62-6.29-2.25-2.71-8.35-.58-11,.05a51.74,51.74,0,0,0-26.07,15.4c-4.9,5.45-7.44,14.22,2,16,9.67,1.85,21-2.17,29.56-6.25,11-5.24,20.56-12.95,29.71-20.93,3.52-3.07,9-7,9.75-11.2L107.4,1A4,4,0,0,1,107.45,2.88Z"/><path class="cls-3" d="M17.87,59.76c9.42,3.62,19.45.34,28.54-2.68,10.45-3.47,21-6.85,31.1-11.15C94.7,38.65,111.43,28,121,11.43A48.35,48.35,0,0,0,124.1,5c-1-.33-2-.66-3-1-.15.35-.3.71-.46,1.06C113.86,19.77,100,30.34,85.94,37.65A189.94,189.94,0,0,1,60.16,48.29C51.92,51.14,43.55,54.41,35,56.37,27,58.23,15.49,57.69,11.19,49.5c-.7,1.3-1.38,2.63-2,4A20,20,0,0,0,17.87,59.76Z"/><path class="cls-4" d="M40.43,75.77c14.88-3.16,29.08-9.19,42.43-16.41,13.13-7.09,27.05-15,37.34-25.95A79.73,79.73,0,0,0,135.44,9.62c-.56-.28-1.13-.54-1.7-.81a80.94,80.94,0,0,1-17.81,23.72C104,43.51,89,52,74.51,59.22,59.66,66.62,43.63,72.36,27,73.83a95.23,95.23,0,0,1-12.18.28C11,74,6.09,74,2.62,72c-.3,1.24-.58,2.48-.83,3.74,4.88,2.46,11.34,2.41,16.52,2.44A104.12,104.12,0,0,0,40.43,75.77Z"/><path class="cls-5" d="M29.68,87.06c19.24-1,36.45-2.39,54.5-10,14.66-6.13,29.18-15.2,39.26-27.65,5.31-6.55,8.46-14.17,13.3-21,3.31-4.65,6.66-8.39,8.1-13.52l-1-.64c-3.15,6.66-9.09,10.88-14.58,15.74-4.63,4.09-8.6,8.78-13,13.08A122.47,122.47,0,0,1,80.41,67.6,197.89,197.89,0,0,1,33.05,81.38c-8.59,1.41-17.46,1.44-26.16,1.56-2,0-4.14.1-6.24.16-.19,1.66-.34,3.33-.45,5C10.26,88.85,20.91,87.53,29.68,87.06Z"/><path class="cls-6" d="M20.52,137c9.92-.28,19.84.35,29.76.73,17.6.66,35.85.59,52.6-5.62,14.38-5.33,27.28-14.67,38.9-24.49,12.55-10.6,23.91-22,29.54-37.81a108.84,108.84,0,0,0,5.07-21.06c-1.16-2.11-2.41-4.16-3.72-6.17-.6,2.51-1.23,4.82-1.57,6.34-4.25,19.32-15.35,31.33-29.44,44.36-12.84,11.88-26.8,22.08-42.86,29.16-20.94,9.22-42.92,8.38-65.29,9-7.42.22-16.49.16-25,1.6.67,1.48,1.39,2.94,2.14,4.38C14,137.15,17.39,137.07,20.52,137Z"/><path class="cls-7" d="M112.68,142.11c10.14-4.46,19.22-11,28.23-17.39,7-5,13.3-9.94,17.9-17.26,6-9.61,14.18-17.28,20.57-26.58a100.74,100.74,0,0,0,5.76-9.95c-.6-2.38-1.31-4.73-2.1-7q-1.06,2-2.11,4.15c-4.74,9.69-11.13,17.26-17.77,25.69-5.83,7.41-9.36,16.14-16.6,22.39a103.77,103.77,0,0,1-30,18.3c-18.53,7.35-40.13,7.27-59.73,10.35C44.5,146.71,31,149.57,18,149.29c.81,1.11,1.64,2.2,2.5,3.27,8.5.1,17.14-.69,25.53-1.13C68.41,150.27,91.73,151.33,112.68,142.11Z"/><path class="cls-8" d="M187.6,85.48a125,125,0,0,1-11.91,17.21c-10.48,13.15-22.21,25.41-31.95,39.11-.22.3.21.72.51.51,15.1-10.42,32-23.53,43.31-39.26.28-3,.44-6,.44-9C188,91.13,187.85,88.29,187.6,85.48Z"/><path class="cls-9" d="M23.08,120.59c9.19-.15,18.29,1.16,27.47-.17,30.54-4.42,63.17-12.53,85.08-35.62,9.29-9.79,17.67-21.52,22.53-34.14,2.29-5.94,3.82-12.47,7-18q-1.26-1.45-2.58-2.88c-7.39,11.3-9.53,25.8-17.23,37.17-10.35,15.31-28.09,23.64-45,29.79C82.09,103.35,62.76,106.08,44,111,31.85,114.22,20.82,117,8.11,117.1c-1.32,0-3.25.26-5.16.36.33,1.28.7,2.54,1.08,3.79C10.38,121.47,17.06,120.68,23.08,120.59Z"/><path class="cls-10" d="M1.29,106.84a3.23,3.23,0,0,0,0-.44c16.18-3.41,32.4,3.9,48.59-.48,17.08-4.63,35.56-9.6,51.77-16.78,15.7-7,25.45-19.92,35.27-33.51,5-7,10.22-14.4,13.64-22.35a54.06,54.06,0,0,0,3.28-11.77c-.82-.68-1.66-1.33-2.51-2-6.17,11.9-15.69,23.4-24,32.85C115.91,65.32,105.05,76.73,89,83.67c-15.12,6.55-32.92,17.41-49.64,18.1-13.56.55-26-3.43-39.07-.47.17,2.22.4,4.42.72,6.6A5.87,5.87,0,0,0,1.29,106.84Z"/><path class="cls-11" d="M92.33,165.16c15.48-3.58,35.19-8.21,47.29-19.12,1-.89-.47-2.33-1.46-1.46-12.81,11.29-35.69,15.72-52,18.85a175.74,175.74,0,0,1-28.93,3.42c-8,.16-15.9-1.2-23.86-1.08,2.37,2,4.84,3.9,7.4,5.66C57.92,169.35,75.27,169.11,92.33,165.16Z"/><path class="cls-12" d="M119.8,172.13A124.63,124.63,0,0,1,77.46,179c-7.65-.07-14.92-1.73-22.4-3.14-3-.55-6.61-1-10.2-1.69a94,94,0,0,0,20.38,9.36,214.71,214.71,0,0,0,45.6-6.24c27.37-7,48.28-23.13,67.66-42.06.91-1.86,1.75-3.76,2.54-5.69C163.38,147.61,144.45,163.51,119.8,172.13Z"/></g></g></svg>